<svg xmlns="http://www.w3.org/2000/svg" xmlns:svg="http://www.w3.org/2000/svg" xmlns:xlink="http://www.w3.org/1999/xlink" id="svg1306" width="24" height="24" version="1.0"><defs id="defs1308"><linearGradient id="linearGradient2369"><stop style="stop-color:#204a87;stop-opacity:1" id="stop2371" offset="0"/><stop style="stop-color:#204a87;stop-opacity:0" id="stop2373" offset="1"/></linearGradient><linearGradient id="linearGradient2707"><stop style="stop-color:#eeeeec;stop-opacity:1" id="stop2709" offset="0"/><stop style="stop-color:#eeeeec;stop-opacity:0" id="stop2711" offset="1"/></linearGradient><linearGradient id="aigrd2" x1="12.274" x2="35.391" y1="32.416" y2="14.203" gradientUnits="userSpaceOnUse"><stop style="stop-color:#fbfbfb" id="stop3043" offset="0"/><stop style="stop-color:#b6b6b6" id="stop3045" offset=".5"/><stop style="stop-color:#e4e4e4" id="stop3047" offset="1"/></linearGradient><linearGradient id="aigrd1" x1="14.997" x2="32.511" y1="11.188" y2="34.307" gradientUnits="userSpaceOnUse"><stop style="stop-color:#ebebeb" id="stop3034" offset="0"/><stop style="stop-color:#fff" id="stop3036" offset=".5"/><stop style="stop-color:#ebebeb" id="stop3038" offset="1"/></linearGradient><linearGradient id="linearGradient23419"><stop style="stop-color:#000;stop-opacity:1" id="stop23421" offset="0"/><stop style="stop-color:#000;stop-opacity:0" id="stop23423" offset="1"/></linearGradient><radialGradient id="radialGradient3507" cx="23.335" cy="41.636" r="22.627" fx="23.335" fy="41.636" gradientTransform="matrix(1,0,0,0.25,0,31.22703)" gradientUnits="userSpaceOnUse" xlink:href="#linearGradient23419"/><linearGradient id="linearGradient3780" x1="24.512" x2="24.512" y1="5.873" y2="16.561" gradientTransform="translate(156.1887,-121.9111)" gradientUnits="userSpaceOnUse" xlink:href="#linearGradient2622"/><linearGradient id="linearGradient3776" x1="32.828" x2="60.071" y1="7.921" y2="7.868" gradientTransform="matrix(0.750458,0,0,1.33252,156.1887,-121.9111)" gradientUnits="userSpaceOnUse" xlink:href="#linearGradient2580"/><linearGradient id="linearGradient3773" x1="24.588" x2="22.436" y1="39.067" y2="15.192" gradientTransform="translate(156.1887,-121.9111)" gradientUnits="userSpaceOnUse" xlink:href="#linearGradient2614"/><linearGradient id="linearGradient3770" x1="21.53" x2="25.375" y1="20.313" y2="26.625" gradientTransform="translate(156.1887,-121.9111)" gradientUnits="userSpaceOnUse" xlink:href="#linearGradient2630"/><linearGradient id="linearGradient3766" x1="25.851" x2="24.996" y1="37.625" y2="25.25" gradientTransform="translate(156.1887,-121.9111)" gradientUnits="userSpaceOnUse" xlink:href="#linearGradient2339"/><linearGradient id="linearGradient3762" x1="25.851" x2="24.996" y1="37.625" y2="25.25" gradientUnits="userSpaceOnUse" xlink:href="#linearGradient2339"/><linearGradient id="linearGradient3760" x1="21.53" x2="25.375" y1="20.313" y2="26.625" gradientUnits="userSpaceOnUse" xlink:href="#linearGradient2630"/><linearGradient id="linearGradient3758" x1="24.588" x2="22.436" y1="39.067" y2="15.192" gradientUnits="userSpaceOnUse" xlink:href="#linearGradient2614"/><linearGradient id="linearGradient3756" x1="32.828" x2="60.071" y1="7.921" y2="7.868" gradientTransform="scale(0.750458,1.33252)" gradientUnits="userSpaceOnUse" xlink:href="#linearGradient2580"/><linearGradient id="linearGradient3754" x1="24.512" x2="24.512" y1="5.873" y2="16.561" gradientUnits="userSpaceOnUse" xlink:href="#linearGradient2622"/><linearGradient id="linearGradient2630"><stop style="stop-color:#fff;stop-opacity:1" id="stop2632" offset="0"/><stop style="stop-color:#fff;stop-opacity:0" id="stop2634" offset="1"/></linearGradient><linearGradient id="linearGradient2622"><stop style="stop-color:#e4a05d;stop-opacity:1" id="stop2624" offset="0"/><stop style="stop-color:#af651d;stop-opacity:1" id="stop2626" offset="1"/></linearGradient><linearGradient id="linearGradient2614"><stop style="stop-color:#e3aa57;stop-opacity:1" id="stop2616" offset="0"/><stop style="stop-color:#eabd7c;stop-opacity:1" id="stop2618" offset="1"/></linearGradient><linearGradient id="linearGradient2580"><stop id="stop2582" offset="0" style="stop-color:#fff;stop-opacity:1"/><stop id="stop2586" offset="1" style="stop-color:#729fcf;stop-opacity:0"/></linearGradient><linearGradient id="linearGradient2339"><stop style="stop-color:#fff;stop-opacity:1" id="stop2341" offset="0"/><stop style="stop-color:#fff;stop-opacity:0" id="stop2343" offset="1"/></linearGradient><linearGradient id="linearGradient320" x1="32.828" x2="60.071" y1="7.921" y2="7.868" gradientTransform="scale(0.750458,1.33252)" gradientUnits="userSpaceOnUse" xlink:href="#linearGradient2580"/><linearGradient id="linearGradient2345" x1="25.851" x2="24.996" y1="37.625" y2="25.25" gradientUnits="userSpaceOnUse" xlink:href="#linearGradient2339"/><linearGradient id="linearGradient2620" x1="24.588" x2="22.436" y1="39.067" y2="15.192" gradientUnits="userSpaceOnUse" xlink:href="#linearGradient2614"/><linearGradient id="linearGradient2628" x1="24.512" x2="24.512" y1="5.873" y2="16.561" gradientUnits="userSpaceOnUse" xlink:href="#linearGradient2622"/><linearGradient id="linearGradient2636" x1="21.53" x2="25.375" y1="20.313" y2="26.625" gradientUnits="userSpaceOnUse" xlink:href="#linearGradient2630"/><radialGradient id="radialGradient2823" cx="23.584" cy="43.636" r="22.728" fx="23.584" fy="43.636" gradientTransform="matrix(0.917623,-0.00135498,3.632022e-4,0.148463,1.926889,37.03865)" gradientUnits="userSpaceOnUse" xlink:href="#linearGradient2817"/><linearGradient id="linearGradient2817"><stop id="stop2819" offset="0" style="stop-color:#000;stop-opacity:1"/><stop id="stop2821" offset="1" style="stop-color:#000;stop-opacity:0"/></linearGradient><linearGradient id="linearGradient4928"><stop style="stop-color:#fce94f;stop-opacity:1" id="stop4930" offset="0"/><stop style="stop-color:#fce94f;stop-opacity:0" id="stop4932" offset="1"/></linearGradient><linearGradient id="linearGradient2300"><stop id="stop2302" offset="0" style="stop-color:#555753;stop-opacity:1"/><stop id="stop2304" offset="1" style="stop-color:#555753;stop-opacity:0"/></linearGradient><radialGradient id="radialGradient2596" cx="17.984" cy="40.604" r="21.031" fx="17.984" fy="40.604" gradientTransform="matrix(1.113818,0,0,0.539348,-2.124098,18.94132)" gradientUnits="userSpaceOnUse" xlink:href="#linearGradient2300"/><linearGradient id="linearGradient2713" x1="18" x2="18" y1="39" y2="45.78" gradientTransform="matrix(0.500001,0,0,0.500001,26.34334,-33.082667)" gradientUnits="userSpaceOnUse" xlink:href="#linearGradient2707"/><linearGradient id="linearGradient2360" x1="18" x2="18" y1="39" y2="45.78" gradientTransform="matrix(0.35798,0,0,0.35798,27.09342,-30.32825)" gradientUnits="userSpaceOnUse" xlink:href="#linearGradient2707"/><linearGradient id="linearGradient2375" x1="17.028" x2="19.608" y1="13.486" y2="9.017" gradientTransform="matrix(0.715959,0,0,0.715959,0.635691,-0.05176078)" gradientUnits="userSpaceOnUse" xlink:href="#linearGradient2369"/></defs><metadata id="metadata1311"/><g id="layer1" transform="translate(0,2)"><path style="opacity:.5;fill:url(#radialGradient2596);fill-opacity:1;fill-rule:evenodd;stroke:none" id="path2290" d="m 39.692827,41.416107 c 0,5.624314 -9.415705,10.183721 -21.030567,10.183721 -11.6148615,0 -21.0305671,-4.559407 -21.0305671,-10.183721 0,-5.624313 9.4157056,-10.18372 21.0305671,-10.18372 11.614862,0 21.030567,4.559407 21.030567,10.18372 z" transform="matrix(0.523048,0,0,0.441882,1.274395,0.149068)"/><g id="g4178" transform="translate(-25.235049,-4.6130371e-7)"><rect id="rect3050-5" width="23" height="21" x="25.705" y="-1.459" rx="1" ry="1" style="fill:#e4e3e3;fill-opacity:1;fill-rule:nonzero;stroke:#615959;stroke-width:1;stroke-linejoin:round;stroke-miterlimit:4;stroke-opacity:.73333333;stroke-dasharray:none"/><rect id="rect3050" width="19" height="4" x="27.663" y=".658" rx=".5" ry=".5" style="fill:#bed7ea;fill-opacity:1;fill-rule:nonzero;stroke:#868c7c;stroke-width:1.00049758;stroke-linejoin:round;stroke-miterlimit:4;stroke-opacity:1;stroke-dasharray:none"/><rect id="rect3846" width="1" height="14.821" x="39.722" y="4.175" style="fill:#615959;fill-opacity:.73333333;fill-rule:nonzero;stroke:none"/><text id="text4030" x="37.986" y="9.115" xml:space="preserve" style="font-size:2px;font-style:normal;font-variant:normal;font-weight:700;font-stretch:normal;text-align:end;line-height:125%;writing-mode:lr-tb;text-anchor:end;fill:#615959;fill-opacity:1;stroke:none;font-family:Bitstream Vera Sans;-inkscape-font-specification:Bitstream Vera Sans Bold"><tspan id="tspan4036" x="37.986" y="9.115">INVOICED</tspan></text><text id="text4030-7" x="37.961" y="12.186" xml:space="preserve" style="font-size:2px;font-style:normal;font-variant:normal;font-weight:700;font-stretch:normal;text-align:end;line-height:125%;writing-mode:lr-tb;text-anchor:end;fill:#615959;fill-opacity:1;stroke:none;font-family:Bitstream Vera Sans;-inkscape-font-specification:Bitstream Vera Sans Bold"><tspan id="tspan4036-6" x="37.961" y="12.186">VAT</tspan></text><text id="text4030-6" x="37.895" y="17.127" xml:space="preserve" style="font-size:2px;font-style:normal;font-variant:normal;font-weight:700;font-stretch:normal;text-align:end;line-height:125%;writing-mode:lr-tb;text-anchor:end;fill:#615959;fill-opacity:1;stroke:none;font-family:Bitstream Vera Sans;-inkscape-font-specification:Bitstream Vera Sans Bold"><tspan id="tspan4036-9" x="37.895" y="17.127">TOTAL</tspan></text><text id="text4030-7-3" x="46.385" y="9.115" xml:space="preserve" style="font-size:2px;font-style:normal;font-variant:normal;font-weight:700;font-stretch:normal;text-align:end;line-height:125%;writing-mode:lr-tb;text-anchor:end;fill:#000;fill-opacity:1;stroke:none;font-family:Bitstream Vera Sans;-inkscape-font-specification:Bitstream Vera Sans Bold"><tspan id="tspan4036-6-7" x="46.385" y="9.115">111</tspan></text><text id="text4030-7-5" x="46.185" y="12.186" xml:space="preserve" style="font-size:2px;font-style:normal;font-variant:normal;font-weight:700;font-stretch:normal;text-align:end;line-height:125%;writing-mode:lr-tb;text-anchor:end;fill:#000;fill-opacity:1;stroke:none;font-family:Bitstream Vera Sans;-inkscape-font-specification:Bitstream Vera Sans Bold"><tspan id="tspan4036-6-2" x="46.185" y="12.186">1</tspan></text><text id="text4030-7-4" x="46.319" y="17.127" xml:space="preserve" style="font-size:2px;font-style:normal;font-variant:normal;font-weight:700;font-stretch:normal;text-align:end;line-height:125%;writing-mode:lr-tb;text-anchor:end;fill:#000;fill-opacity:1;stroke:none;font-family:Bitstream Vera Sans;-inkscape-font-specification:Bitstream Vera Sans Bold"><tspan id="tspan4036-6-74" x="46.319" y="17.127">111</tspan></text></g><g id="g3923" transform="matrix(1.1664823,0,0,1.1664823,-2.4960084,-3.6592445)"><path id="path2773" d="m 32.823063,18.894651 c 0,1.202346 -2.83411,2.17704 -6.330162,2.17704 -3.496052,0 -6.330162,-0.974694 -6.330162,-2.17704 0,-1.202346 2.83411,-2.177039 6.330162,-2.177039 3.496052,0 6.330162,0.974693 6.330162,2.177039 z" transform="matrix(0.473882,0,0,0.688581,5.979928,6.970229)" style="fill:#fce94f;fill-opacity:1;fill-rule:evenodd;stroke:#786100;stroke-width:1.75060189;stroke-miterlimit:4;stroke-opacity:1;stroke-dasharray:none"/><path id="path2775" d="m 32.823063,18.894651 c 0,1.202346 -2.83411,2.17704 -6.330162,2.17704 -3.496052,0 -6.330162,-0.974694 -6.330162,-2.17704 0,-1.202346 2.83411,-2.177039 6.330162,-2.177039 3.496052,0 6.330162,0.974693 6.330162,2.177039 z" transform="matrix(0.298567,0,0,0.32454,11.35186,11.69604)" style="opacity:.6;fill:none;stroke:none"/><path id="path2779" d="m 32.823063,18.894651 c 0,1.202346 -2.83411,2.17704 -6.330162,2.17704 -3.496052,0 -6.330162,-0.974694 -6.330162,-2.17704 0,-1.202346 2.83411,-2.177039 6.330162,-2.177039 3.496052,0 6.330162,0.974693 6.330162,2.177039 z" transform="matrix(0.298567,0,0,0.32454,11.35641,10.755)" style="opacity:.6;fill:none;stroke:none"/><path id="path2783" d="m 32.823063,18.894651 c 0,1.202346 -2.83411,2.17704 -6.330162,2.17704 -3.496052,0 -6.330162,-0.974694 -6.330162,-2.17704 0,-1.202346 2.83411,-2.177039 6.330162,-2.177039 3.496052,0 6.330162,0.974693 6.330162,2.177039 z" transform="matrix(0.298567,0,0,0.32454,11.35641,9.810939)" style="opacity:.6;fill:none;stroke:none"/><path id="path2787" d="m 32.823063,18.894651 c 0,1.202346 -2.83411,2.17704 -6.330162,2.17704 -3.496052,0 -6.330162,-0.974694 -6.330162,-2.17704 0,-1.202346 2.83411,-2.177039 6.330162,-2.177039 3.496052,0 6.330162,0.974693 6.330162,2.177039 z" transform="matrix(0.298567,0,0,0.32454,11.35641,8.86382)" style="opacity:.6;fill:none;stroke:none"/><path id="path2791" d="m 32.823063,18.894651 c 0,1.202346 -2.83411,2.17704 -6.330162,2.17704 -3.496052,0 -6.330162,-0.974694 -6.330162,-2.17704 0,-1.202346 2.83411,-2.177039 6.330162,-2.177039 3.496052,0 6.330162,0.974693 6.330162,2.177039 z" transform="matrix(0.298567,0,0,0.32454,11.35641,7.919771)" style="opacity:.6;fill:none;stroke:none"/><path id="path2314" d="m 32.823063,18.894651 c 0,1.202346 -2.83411,2.17704 -6.330162,2.17704 -3.496052,0 -6.330162,-0.974694 -6.330162,-2.17704 0,-1.202346 2.83411,-2.177039 6.330162,-2.177039 3.496052,0 6.330162,0.974693 6.330162,2.177039 z" transform="matrix(0.395812,0,0,0.680163,8.533936,1.129299)" style="fill:#fce94f;fill-opacity:1;fill-rule:evenodd;stroke:#8c7200;stroke-width:1.92729855;stroke-miterlimit:4;stroke-opacity:1;stroke-dasharray:none"/><path id="path2431" d="m 32.823063,18.894651 c 0,1.202346 -2.83411,2.17704 -6.330162,2.17704 -3.496052,0 -6.330162,-0.974694 -6.330162,-2.17704 0,-1.202346 2.83411,-2.177039 6.330162,-2.177039 3.496052,0 6.330162,0.974693 6.330162,2.177039 z" transform="matrix(0.298567,0,0,0.32454,8.972716,9.301989)" style="opacity:.6;fill:none;stroke:none"/><path id="path2793" d="m 32.823063,18.894651 c 0,1.202346 -2.83411,2.17704 -6.330162,2.17704 -3.496052,0 -6.330162,-0.974694 -6.330162,-2.17704 0,-1.202346 2.83411,-2.177039 6.330162,-2.177039 3.496052,0 6.330162,0.974693 6.330162,2.177039 z" transform="matrix(0.395859,0,0,0.680662,8.532386,-0.880138)" style="fill:#fef293;fill-opacity:1;fill-rule:evenodd;stroke:#8c7200;stroke-width:1.92647624;stroke-miterlimit:4;stroke-opacity:1;stroke-dasharray:none"/><path id="path3161" d="m 32.823063,18.894651 c 0,1.202346 -2.83411,2.17704 -6.330162,2.17704 -3.496052,0 -6.330162,-0.974694 -6.330162,-2.17704 0,-1.202346 2.83411,-2.177039 6.330162,-2.177039 3.496052,0 6.330162,0.974693 6.330162,2.177039 z" transform="matrix(0.475303,0,0,0.696048,5.933526,4.813828)" style="fill:#fce94f;fill-opacity:1;fill-rule:evenodd;stroke:#8c7200;stroke-width:1.73858023;stroke-miterlimit:4;stroke-opacity:1;stroke-dasharray:none"/><path id="path3159" d="m 32.823063,18.894651 c 0,1.202346 -2.83411,2.17704 -6.330162,2.17704 -3.496052,0 -6.330162,-0.974694 -6.330162,-2.17704 0,-1.202346 2.83411,-2.177039 6.330162,-2.177039 3.496052,0 6.330162,0.974693 6.330162,2.177039 z" transform="matrix(0.475303,0,0,0.696048,5.933526,2.813828)" style="fill:#fce94f;fill-opacity:1;fill-rule:evenodd;stroke:#8c7200;stroke-width:1.73858023;stroke-miterlimit:4;stroke-opacity:1;stroke-dasharray:none"/><path id="path2809" d="m 32.823063,18.894651 c 0,1.202346 -2.83411,2.17704 -6.330162,2.17704 -3.496052,0 -6.330162,-0.974694 -6.330162,-2.17704 0,-1.202346 2.83411,-2.177039 6.330162,-2.177039 3.496052,0 6.330162,0.974693 6.330162,2.177039 z" transform="matrix(0.474118,0,0,0.696048,5.973652,0.813828)" style="fill:#fce94f;fill-opacity:1;fill-rule:evenodd;stroke:#8c7200;stroke-width:1.74075079;stroke-miterlimit:4;stroke-opacity:1;stroke-dasharray:none"/><path id="path3155" d="m 32.823063,18.894651 c 0,1.202346 -2.83411,2.17704 -6.330162,2.17704 -3.496052,0 -6.330162,-0.974694 -6.330162,-2.17704 0,-1.202346 2.83411,-2.177039 6.330162,-2.177039 3.496052,0 6.330162,0.974693 6.330162,2.177039 z" transform="matrix(0.474034,0,0,0.692359,5.966529,-1.106979)" style="fill:#fef293;fill-opacity:1;fill-rule:evenodd;stroke:#8c7200;stroke-width:1.7455368;stroke-miterlimit:4;stroke-opacity:1;stroke-dasharray:none"/></g></g></svg>