<svg xmlns="http://www.w3.org/2000/svg" xmlns:cc="http://web.resource.org/cc/" xmlns:sodipodi="http://inkscape.sourceforge.net/DTD/s odipodi-0.dtd" xmlns:svg="http://www.w3.org/2000/svg" xmlns:xlink="http://www.w3.org/1999/xlink" id="svg1306" width="22" height="22" version="1.0" sodipodi:docbase="/home/hbons/Desktop/gnucash/22x22" sodipodi:docname="gnucash22.svg" sodipodi:version=".32"><defs id="defs1308"><linearGradient id="linearGradient4058"><stop style="stop-color:#204a87;stop-opacity:1" id="stop4060" offset="0"/><stop style="stop-color:#204a87;stop-opacity:0" id="stop4062" offset="1"/></linearGradient><linearGradient id="linearGradient2369"><stop style="stop-color:#204a87;stop-opacity:1" id="stop2371" offset="0"/><stop style="stop-color:#204a87;stop-opacity:0" id="stop2373" offset="1"/></linearGradient><linearGradient id="linearGradient2707"><stop style="stop-color:#eeeeec;stop-opacity:1" id="stop2709" offset="0"/><stop style="stop-color:#eeeeec;stop-opacity:0" id="stop2711" offset="1"/></linearGradient><linearGradient id="linearGradient2649"><stop style="stop-color:#d3d7cf;stop-opacity:1" id="stop2651" offset="0"/><stop style="stop-color:#d3d7cf;stop-opacity:0" id="stop2653" offset="1"/></linearGradient><linearGradient id="aigrd2" x1="12.274" x2="35.391" y1="32.416" y2="14.203" gradientUnits="userSpaceOnUse"><stop style="stop-color:#fbfbfb" id="stop3043" offset="0"/><stop style="stop-color:#b6b6b6" id="stop3045" offset=".5"/><stop style="stop-color:#e4e4e4" id="stop3047" offset="1"/></linearGradient><linearGradient id="aigrd1" x1="14.997" x2="32.511" y1="11.188" y2="34.307" gradientUnits="userSpaceOnUse"><stop style="stop-color:#ebebeb" id="stop3034" offset="0"/><stop style="stop-color:#fff" id="stop3036" offset=".5"/><stop style="stop-color:#ebebeb" id="stop3038" offset="1"/></linearGradient><linearGradient id="linearGradient23419"><stop style="stop-color:#000;stop-opacity:1" id="stop23421" offset="0"/><stop style="stop-color:#000;stop-opacity:0" id="stop23423" offset="1"/></linearGradient><radialGradient id="radialGradient3507" cx="23.335" cy="41.636" r="22.627" fx="23.335" fy="41.636" gradientTransform="matrix(1,0,0,0.25,0,31.22703)" gradientUnits="userSpaceOnUse" xlink:href="#linearGradient23419"/><linearGradient id="linearGradient3780" x1="24.512" x2="24.512" y1="5.873" y2="16.561" gradientTransform="translate(156.1887,-121.9111)" gradientUnits="userSpaceOnUse" xlink:href="#linearGradient2622"/><linearGradient id="linearGradient3776" x1="32.828" x2="60.071" y1="7.921" y2="7.868" gradientTransform="matrix(0.750458,0,0,1.33252,156.1887,-121.9111)" gradientUnits="userSpaceOnUse" xlink:href="#linearGradient2580"/><linearGradient id="linearGradient3773" x1="24.588" x2="22.436" y1="39.067" y2="15.192" gradientTransform="translate(156.1887,-121.9111)" gradientUnits="userSpaceOnUse" xlink:href="#linearGradient2614"/><linearGradient id="linearGradient3770" x1="21.53" x2="25.375" y1="20.313" y2="26.625" gradientTransform="translate(156.1887,-121.9111)" gradientUnits="userSpaceOnUse" xlink:href="#linearGradient2630"/><linearGradient id="linearGradient3766" x1="25.851" x2="24.996" y1="37.625" y2="25.25" gradientTransform="translate(156.1887,-121.9111)" gradientUnits="userSpaceOnUse" xlink:href="#linearGradient2339"/><linearGradient id="linearGradient3762" x1="25.851" x2="24.996" y1="37.625" y2="25.25" gradientUnits="userSpaceOnUse" xlink:href="#linearGradient2339"/><linearGradient id="linearGradient3760" x1="21.53" x2="25.375" y1="20.313" y2="26.625" gradientUnits="userSpaceOnUse" xlink:href="#linearGradient2630"/><linearGradient id="linearGradient3758" x1="24.588" x2="22.436" y1="39.067" y2="15.192" gradientUnits="userSpaceOnUse" xlink:href="#linearGradient2614"/><linearGradient id="linearGradient3756" x1="32.828" x2="60.071" y1="7.921" y2="7.868" gradientTransform="scale(0.750458,1.33252)" gradientUnits="userSpaceOnUse" xlink:href="#linearGradient2580"/><linearGradient id="linearGradient3754" x1="24.512" x2="24.512" y1="5.873" y2="16.561" gradientUnits="userSpaceOnUse" xlink:href="#linearGradient2622"/><linearGradient id="linearGradient2630"><stop style="stop-color:#fff;stop-opacity:1" id="stop2632" offset="0"/><stop style="stop-color:#fff;stop-opacity:0" id="stop2634" offset="1"/></linearGradient><linearGradient id="linearGradient2622"><stop style="stop-color:#e4a05d;stop-opacity:1" id="stop2624" offset="0"/><stop style="stop-color:#af651d;stop-opacity:1" id="stop2626" offset="1"/></linearGradient><linearGradient id="linearGradient2614"><stop style="stop-color:#e3aa57;stop-opacity:1" id="stop2616" offset="0"/><stop style="stop-color:#eabd7c;stop-opacity:1" id="stop2618" offset="1"/></linearGradient><linearGradient id="linearGradient2580"><stop id="stop2582" offset="0" style="stop-color:#fff;stop-opacity:1"/><stop id="stop2586" offset="1" style="stop-color:#729fcf;stop-opacity:0"/></linearGradient><linearGradient id="linearGradient2339"><stop style="stop-color:#fff;stop-opacity:1" id="stop2341" offset="0"/><stop style="stop-color:#fff;stop-opacity:0" id="stop2343" offset="1"/></linearGradient><linearGradient id="linearGradient320" x1="32.828" x2="60.071" y1="7.921" y2="7.868" gradientTransform="scale(0.750458,1.33252)" gradientUnits="userSpaceOnUse" xlink:href="#linearGradient2580"/><linearGradient id="linearGradient2345" x1="25.851" x2="24.996" y1="37.625" y2="25.25" gradientUnits="userSpaceOnUse" xlink:href="#linearGradient2339"/><linearGradient id="linearGradient2620" x1="24.588" x2="22.436" y1="39.067" y2="15.192" gradientUnits="userSpaceOnUse" xlink:href="#linearGradient2614"/><linearGradient id="linearGradient2628" x1="24.512" x2="24.512" y1="5.873" y2="16.561" gradientUnits="userSpaceOnUse" xlink:href="#linearGradient2622"/><linearGradient id="linearGradient2636" x1="21.53" x2="25.375" y1="20.313" y2="26.625" gradientUnits="userSpaceOnUse" xlink:href="#linearGradient2630"/><radialGradient id="radialGradient2823" cx="23.584" cy="43.636" r="22.728" fx="23.584" fy="43.636" gradientTransform="matrix(0.917623,-1.354978e-3,3.632022e-4,0.148463,1.926889,37.03865)" gradientUnits="userSpaceOnUse" xlink:href="#linearGradient2817"/><linearGradient id="linearGradient2817"><stop id="stop2819" offset="0" style="stop-color:#000;stop-opacity:1"/><stop id="stop2821" offset="1" style="stop-color:#000;stop-opacity:0"/></linearGradient><linearGradient id="linearGradient4928"><stop style="stop-color:#fce94f;stop-opacity:1" id="stop4930" offset="0"/><stop style="stop-color:#fce94f;stop-opacity:0" id="stop4932" offset="1"/></linearGradient><linearGradient id="linearGradient2300"><stop id="stop2302" offset="0" style="stop-color:#555753;stop-opacity:1"/><stop id="stop2304" offset="1" style="stop-color:#555753;stop-opacity:0"/></linearGradient><radialGradient id="radialGradient2596" cx="17.984" cy="40.604" r="21.031" fx="17.984" fy="40.604" gradientTransform="matrix(1.113818,4.37208e-16,-1.132524e-16,0.539348,-2.124098,18.94132)" gradientUnits="userSpaceOnUse" xlink:href="#linearGradient2300"/><radialGradient id="radialGradient2655" cx="24.013" cy="31.644" r="14.987" fx="24.013" fy="31.644" gradientTransform="matrix(1.552347,7.55698e-33,-4.616141e-32,1.330584,-26.24108,-24.38569)" gradientUnits="userSpaceOnUse" xlink:href="#linearGradient2649"/><linearGradient id="linearGradient2713" x1="18" x2="18" y1="39" y2="45.78" gradientTransform="matrix(0.500001,0,0,0.500001,-1.964345,-1.549915)" gradientUnits="userSpaceOnUse" xlink:href="#linearGradient2707"/><linearGradient id="linearGradient2360" x1="18" x2="18" y1="39" y2="45.78" gradientTransform="matrix(0.35798,0,0,0.35798,-1.214265,1.204502)" gradientUnits="userSpaceOnUse" xlink:href="#linearGradient2707"/><linearGradient id="linearGradient2375" x1="17.028" x2="19.608" y1="13.486" y2="9.017" gradientTransform="matrix(0.715959,0,0,0.715959,0.635691,-5.176078e-2)" gradientUnits="userSpaceOnUse" xlink:href="#linearGradient2369"/><linearGradient id="linearGradient4064" x1="11.993" x2="14.748" y1="10.977" y2="8.223" gradientTransform="translate(-0.964344,-1.049911)" gradientUnits="userSpaceOnUse" xlink:href="#linearGradient4058"/></defs><sodipodi:namedview id="base" fill="#fce94f" stroke="#888a85" bordercolor="#666666" borderopacity=".227" pagecolor="#ffffff" showgrid="true" showguides="true"/><metadata id="metadata1311"/><g id="layer1"><path style="opacity:.5;fill:url(#radialGradient2596);fill-opacity:1;fill-rule:evenodd;stroke:none;stroke-width:1;stroke-miterlimit:4;stroke-dasharray:none;stroke-opacity:1" id="path2290" d="M 39.692827 41.416107 A 21.030567 10.183721 0 1 1 -2.3683071,41.416107 A 21.030567 10.183721 0 1 1 39.692827 41.416107 z" transform="matrix(0.523048,0,0,0.441882,1.274395,0.149068)" sodipodi:cx="18.662" sodipodi:cy="41.416" sodipodi:rx="21.031" sodipodi:ry="10.184" sodipodi:type="arc"/><path style="opacity:1;fill:#fce94f;fill-opacity:1;fill-rule:evenodd;stroke:#786100;stroke-width:1.75060189;stroke-miterlimit:4;stroke-dasharray:none;stroke-opacity:1" id="path2773" d="M 32.823063 18.894651 A 6.330162 2.1770399 0 1 1 20.162739,18.894651 A 6.330162 2.1770399 0 1 1 32.823063 18.894651 z" transform="matrix(0.473882,0,0,0.688581,5.979928,6.970229)" sodipodi:cx="26.493" sodipodi:cy="18.895" sodipodi:rx="6.33" sodipodi:ry="2.177" sodipodi:type="arc"/><path style="opacity:.6;fill:none;fill-opacity:1;fill-rule:evenodd;stroke:none;stroke-width:1.51642048;stroke-miterlimit:4;stroke-dasharray:none;stroke-opacity:1" id="path2775" d="M 32.823063 18.894651 A 6.330162 2.1770399 0 1 1 20.162739,18.894651 A 6.330162 2.1770399 0 1 1 32.823063 18.894651 z" transform="matrix(0.298567,0,0,0.32454,11.35186,11.69604)" sodipodi:cx="26.493" sodipodi:cy="18.895" sodipodi:rx="6.33" sodipodi:ry="2.177" sodipodi:type="arc"/><path style="opacity:.6;fill:none;fill-opacity:1;fill-rule:evenodd;stroke:none;stroke-width:1.51642048;stroke-miterlimit:4;stroke-dasharray:none;stroke-opacity:1" id="path2779" d="M 32.823063 18.894651 A 6.330162 2.1770399 0 1 1 20.162739,18.894651 A 6.330162 2.1770399 0 1 1 32.823063 18.894651 z" transform="matrix(0.298567,0,0,0.32454,11.35641,10.755)" sodipodi:cx="26.493" sodipodi:cy="18.895" sodipodi:rx="6.33" sodipodi:ry="2.177" sodipodi:type="arc"/><rect style="opacity:1;fill:#eeeeec;fill-opacity:1;fill-rule:evenodd;stroke:#555753;stroke-width:.99999893;stroke-miterlimit:4;stroke-dasharray:none;stroke-opacity:1" id="rect1354" width="16.984" height="16.984" x="2.551" y=".466" rx="1.896" ry="1.896"/><rect style="opacity:1;fill:url(#radialGradient2655);fill-opacity:1;fill-rule:evenodd;stroke:none;stroke-width:.99999994;stroke-miterlimit:4;stroke-dasharray:none;stroke-opacity:1" id="rect2229" width="14" height="12" x="4.036" y="1.95" rx="1.625" ry="1.625"/><rect style="opacity:1;fill:#d5d6d1;fill-opacity:1;fill-rule:evenodd;stroke:none;stroke-width:1;stroke-miterlimit:4;stroke-dasharray:none;stroke-opacity:1" id="rect2324" width="1" height="10" x="7.036" y="2.95"/><path style="opacity:.6;fill:none;fill-opacity:1;fill-rule:evenodd;stroke:none;stroke-width:1.51642048;stroke-miterlimit:4;stroke-dasharray:none;stroke-opacity:1" id="path2783" d="M 32.823063 18.894651 A 6.330162 2.1770399 0 1 1 20.162739,18.894651 A 6.330162 2.1770399 0 1 1 32.823063 18.894651 z" transform="matrix(0.298567,0,0,0.32454,11.35641,9.810939)" sodipodi:cx="26.493" sodipodi:cy="18.895" sodipodi:rx="6.33" sodipodi:ry="2.177" sodipodi:type="arc"/><rect style="opacity:1;fill:#888a85;fill-opacity:1;fill-rule:evenodd;stroke:none;stroke-width:1;stroke-miterlimit:4;stroke-dasharray:none;stroke-opacity:1" id="rect2600" width="1" height="14" x="14.95" y="-18.036" transform="matrix(2.190992e-19,1,-1,4.92973e-19,0,0)"/><path style="opacity:.6;fill:none;fill-opacity:1;fill-rule:evenodd;stroke:none;stroke-width:1.51642048;stroke-miterlimit:4;stroke-dasharray:none;stroke-opacity:1" id="path2787" d="M 32.823063 18.894651 A 6.330162 2.1770399 0 1 1 20.162739,18.894651 A 6.330162 2.1770399 0 1 1 32.823063 18.894651 z" transform="matrix(0.298567,0,0,0.32454,11.35641,8.86382)" sodipodi:cx="26.493" sodipodi:cy="18.895" sodipodi:rx="6.33" sodipodi:ry="2.177" sodipodi:type="arc"/><rect style="opacity:1;fill:#d5d6d1;fill-opacity:1;fill-rule:evenodd;stroke:none;stroke-width:1;stroke-miterlimit:4;stroke-dasharray:none;stroke-opacity:1" id="rect2334" width="1" height="13" x="3.95" y="-18.036" transform="matrix(-3.396806e-17,1,-1,-4.522374e-17,0,0)"/><path style="opacity:.6;fill:none;fill-opacity:1;fill-rule:evenodd;stroke:none;stroke-width:1.51642048;stroke-miterlimit:4;stroke-dasharray:none;stroke-opacity:1" id="path2791" d="M 32.823063 18.894651 A 6.330162 2.1770399 0 1 1 20.162739,18.894651 A 6.330162 2.1770399 0 1 1 32.823063 18.894651 z" transform="matrix(0.298567,0,0,0.32454,11.35641,7.919771)" sodipodi:cx="26.493" sodipodi:cy="18.895" sodipodi:rx="6.33" sodipodi:ry="2.177" sodipodi:type="arc"/><path style="opacity:1;fill:#fce94f;fill-opacity:1;fill-rule:evenodd;stroke:#8c7200;stroke-width:1.92729855;stroke-miterlimit:4;stroke-dasharray:none;stroke-opacity:1" id="path2314" d="M 32.823063 18.894651 A 6.330162 2.1770399 0 1 1 20.162739,18.894651 A 6.330162 2.1770399 0 1 1 32.823063 18.894651 z" transform="matrix(0.395812,0,0,0.680163,8.533936,1.129299)" sodipodi:cx="26.493" sodipodi:cy="18.895" sodipodi:rx="6.33" sodipodi:ry="2.177" sodipodi:type="arc"/><rect style="opacity:1;fill:#d5d6d1;fill-opacity:1;fill-rule:evenodd;stroke:none;stroke-width:1;stroke-miterlimit:4;stroke-dasharray:none;stroke-opacity:1" id="rect2387" width="1" height="13" x="6.95" y="-18.036" transform="matrix(-3.396806e-17,1,-1,-4.522374e-17,0,0)"/><rect style="opacity:1;fill:#d5d6d1;fill-opacity:1;fill-rule:evenodd;stroke:none;stroke-width:1;stroke-miterlimit:4;stroke-dasharray:none;stroke-opacity:1" id="rect2381" width="1" height="10" x="10.036" y="2.95"/><rect style="opacity:1;fill:#d5d6d1;fill-opacity:1;fill-rule:evenodd;stroke:none;stroke-width:1;stroke-miterlimit:4;stroke-dasharray:none;stroke-opacity:1" id="rect2383" width="1" height="10" x="13.036" y="2.95"/><rect style="opacity:1;fill:#d5d6d1;fill-opacity:1;fill-rule:evenodd;stroke:none;stroke-width:1;stroke-miterlimit:4;stroke-dasharray:none;stroke-opacity:1" id="rect2389" width="1" height="13" x="9.95" y="-18.036" transform="matrix(-3.396806e-17,1,-1,-4.522374e-17,0,0)"/><rect style="opacity:1;fill:#888a85;fill-opacity:1;fill-rule:evenodd;stroke:none;stroke-width:1;stroke-miterlimit:4;stroke-dasharray:none;stroke-opacity:1" id="rect2356" width="1.432" height="2.109" x="4.513" y="15.204"/><rect style="opacity:1;fill:url(#linearGradient2360);fill-opacity:1;fill-rule:evenodd;stroke:none;stroke-width:1;stroke-miterlimit:4;stroke-dasharray:none;stroke-opacity:1" id="rect2358" width="1.432" height="2.148" x="4.513" y="15.166"/><rect style="fill:#eeeeec;fill-opacity:1;fill-rule:evenodd;stroke:#555753;stroke-width:1;stroke-miterlimit:4;stroke-dasharray:none;stroke-opacity:1" id="rect2341" width="2.331" height="2.884" x="3.603" y="14.812"/><path style="fill:#4e9a06;fill-opacity:1;fill-rule:evenodd;stroke:#2e5c02;stroke-width:.99999893;stroke-miterlimit:4;stroke-opacity:1" id="rect2271" d="M 0.53828538,17.389094 L 12.535657,17.389094 L 12.535657,21.450092 L 0.53828538,21.450092 L 0.53828538,17.389094 z"/><path style="fill:#57ae06;fill-opacity:1;fill-rule:evenodd;stroke:#2e5c02;stroke-width:.9999994;stroke-miterlimit:4;stroke-opacity:1" id="path3816" d="M 1.4156743,14.452706 L 11.693764,14.452706 L 12.534895,17.44748 L 0.53715268,17.44748 L 1.4156743,14.452706 z" sodipodi:nodetypes="ccccc"/><rect style="opacity:1;fill:#2e5c02;fill-opacity:1;fill-rule:evenodd;stroke:none;stroke-width:1;stroke-miterlimit:4;stroke-dasharray:none;stroke-opacity:1" id="rect2441" width="11" height="1" x="1.036" y="18.95"/><path style="opacity:.25;fill:#fff;fill-opacity:1;fill-rule:evenodd;stroke:none;stroke-width:.99999917;stroke-miterlimit:4;stroke-opacity:1" id="path2269" d="M 1.8017726,14.948124 L 1.2214833,16.950089 L 11.904762,16.902723 L 11.301772,14.971807 L 1.8017726,14.948124 z" sodipodi:nodetypes="ccccc"/><path style="opacity:1;fill:#d3d7cf;fill-opacity:1;fill-rule:evenodd;stroke:#555753;stroke-width:1.00000024;stroke-miterlimit:4;stroke-dasharray:none;stroke-opacity:1" id="rect1372" d="M 6.5021794,14.450816 L 5.5713077,17.748359 L 5.5713077,21.437709 L 8.4999999,21.437709 L 8.4999999,17.717124 L 7.6401913,14.460501 L 6.5021794,14.450816 z" sodipodi:nodetypes="ccccccc"/><rect style="opacity:1;fill:#888a85;fill-opacity:1;fill-rule:evenodd;stroke:none;stroke-width:1;stroke-miterlimit:4;stroke-dasharray:none;stroke-opacity:1" id="rect2721" width="2" height="3" x="6.036" y="17.95"/><rect style="opacity:1;fill:url(#linearGradient2713);fill-opacity:1;fill-rule:evenodd;stroke:none;stroke-width:1;stroke-miterlimit:4;stroke-dasharray:none;stroke-opacity:1" id="rect2673" width="2" height="3" x="6.036" y="17.95"/><path style="opacity:.6;fill:none;fill-opacity:1;fill-rule:evenodd;stroke:none;stroke-width:1.51642048;stroke-miterlimit:4;stroke-dasharray:none;stroke-opacity:1" id="path2431" d="M 32.823063 18.894651 A 6.330162 2.1770399 0 1 1 20.162739,18.894651 A 6.330162 2.1770399 0 1 1 32.823063 18.894651 z" transform="matrix(0.298567,0,0,0.32454,8.972716,9.301989)" sodipodi:cx="26.493" sodipodi:cy="18.895" sodipodi:rx="6.33" sodipodi:ry="2.177" sodipodi:type="arc"/><rect style="opacity:1;fill:#d5d6d1;fill-opacity:1;fill-rule:evenodd;stroke:none;stroke-width:1;stroke-miterlimit:4;stroke-dasharray:none;stroke-opacity:1" id="rect2385" width="1" height="10" x="16.036" y="2.95"/><path style="opacity:1;fill:#fef293;fill-opacity:1;fill-rule:evenodd;stroke:#8c7200;stroke-width:1.92647624;stroke-miterlimit:4;stroke-dasharray:none;stroke-opacity:1" id="path2793" d="M 32.823063 18.894651 A 6.330162 2.1770399 0 1 1 20.162739,18.894651 A 6.330162 2.1770399 0 1 1 32.823063 18.894651 z" transform="matrix(0.395859,0,0,0.680662,8.532386,-0.880138)" sodipodi:cx="26.493" sodipodi:cy="18.895" sodipodi:rx="6.33" sodipodi:ry="2.177" sodipodi:type="arc"/><path style="opacity:1;fill:#fce94f;fill-opacity:1;fill-rule:evenodd;stroke:#8c7200;stroke-width:1.73858023;stroke-miterlimit:4;stroke-dasharray:none;stroke-opacity:1" id="path3161" d="M 32.823063 18.894651 A 6.330162 2.1770399 0 1 1 20.162739,18.894651 A 6.330162 2.1770399 0 1 1 32.823063 18.894651 z" transform="matrix(0.475303,0,0,0.696048,5.933526,4.813828)" sodipodi:cx="26.493" sodipodi:cy="18.895" sodipodi:rx="6.33" sodipodi:ry="2.177" sodipodi:type="arc"/><path style="opacity:1;fill:#fce94f;fill-opacity:1;fill-rule:evenodd;stroke:#8c7200;stroke-width:1.73858023;stroke-miterlimit:4;stroke-dasharray:none;stroke-opacity:1" id="path3159" d="M 32.823063 18.894651 A 6.330162 2.1770399 0 1 1 20.162739,18.894651 A 6.330162 2.1770399 0 1 1 32.823063 18.894651 z" transform="matrix(0.475303,0,0,0.696048,5.933526,2.813828)" sodipodi:cx="26.493" sodipodi:cy="18.895" sodipodi:rx="6.33" sodipodi:ry="2.177" sodipodi:type="arc"/><path style="opacity:1;fill:#fce94f;fill-opacity:1;fill-rule:evenodd;stroke:#8c7200;stroke-width:1.74075079;stroke-miterlimit:4;stroke-dasharray:none;stroke-opacity:1" id="path2809" d="M 32.823063 18.894651 A 6.330162 2.1770399 0 1 1 20.162739,18.894651 A 6.330162 2.1770399 0 1 1 32.823063 18.894651 z" transform="matrix(0.474118,0,0,0.696048,5.973652,0.813828)" sodipodi:cx="26.493" sodipodi:cy="18.895" sodipodi:rx="6.33" sodipodi:ry="2.177" sodipodi:type="arc"/><path style="opacity:1;fill:#fef293;fill-opacity:1;fill-rule:evenodd;stroke:#8c7200;stroke-width:1.7455368;stroke-miterlimit:4;stroke-dasharray:none;stroke-opacity:1" id="path3155" d="M 32.823063 18.894651 A 6.330162 2.1770399 0 1 1 20.162739,18.894651 A 6.330162 2.1770399 0 1 1 32.823063 18.894651 z" transform="matrix(0.474034,0,0,0.692359,5.966529,-1.106979)" sodipodi:cx="26.493" sodipodi:cy="18.895" sodipodi:rx="6.33" sodipodi:ry="2.177" sodipodi:type="arc"/><path style="opacity:1;fill:url(#linearGradient4064);fill-opacity:1;fill-rule:evenodd;stroke:none;stroke-width:1;stroke-miterlimit:4;stroke-dasharray:none;stroke-opacity:1" id="rect4049" d="M 7.5063209,6.9500891 L 4.0356565,10.293839 L 4.6919065,10.950089 L 7.5356565,8.1063391 L 10.539609,10.950089 L 14.035656,7.6063391 L 13.379406,6.9500891 L 10.535656,9.7938391 L 7.5063209,6.9500891 z" sodipodi:nodetypes="ccccccccc"/><rect style="opacity:1;fill:#888a85;fill-opacity:1;fill-rule:evenodd;stroke:none;stroke-width:1;stroke-miterlimit:4;stroke-dasharray:none;stroke-opacity:1" id="rect2231" width="1" height="11" x="4.036" y="2.95"/><path style="opacity:.2;fill:#fff;fill-opacity:1;fill-rule:evenodd;stroke:none;stroke-width:1;stroke-miterlimit:4;stroke-opacity:1" id="rect2743" d="M 4.0356565,2.9500891 L 18.035656,2.9500891 C 12.360683,4.6879229 12.74479,10.950089 4.0356565,10.950089 L 4.0356565,2.9500891 z" sodipodi:nodetypes="cccc"/></g></svg>