<svg xmlns="http://www.w3.org/2000/svg" xmlns:cc="http://web.resource.org/cc/" xmlns:sodipodi="http://inkscape.sourceforge.net/DTD/s odipodi-0.dtd" xmlns:svg="http://www.w3.org/2000/svg" xmlns:xlink="http://www.w3.org/1999/xlink" id="svg1306" width="16" height="16" version="1.0" sodipodi:docbase="/home/hbons/Desktop" sodipodi:docname="gnucash16.svg" sodipodi:version=".32"><defs id="defs1308"><linearGradient id="linearGradient4355"><stop style="stop-color:#204a87;stop-opacity:1" id="stop4357" offset="0"/><stop style="stop-color:#204a87;stop-opacity:0" id="stop4359" offset="1"/></linearGradient><linearGradient id="linearGradient4058"><stop style="stop-color:#204a87;stop-opacity:1" id="stop4060" offset="0"/><stop style="stop-color:#204a87;stop-opacity:0" id="stop4062" offset="1"/></linearGradient><linearGradient id="linearGradient2369"><stop style="stop-color:#204a87;stop-opacity:1" id="stop2371" offset="0"/><stop style="stop-color:#204a87;stop-opacity:0" id="stop2373" offset="1"/></linearGradient><linearGradient id="linearGradient2707"><stop style="stop-color:#eeeeec;stop-opacity:1" id="stop2709" offset="0"/><stop style="stop-color:#eeeeec;stop-opacity:0" id="stop2711" offset="1"/></linearGradient><linearGradient id="linearGradient2649"><stop style="stop-color:#d3d7cf;stop-opacity:1" id="stop2651" offset="0"/><stop style="stop-color:#d3d7cf;stop-opacity:0" id="stop2653" offset="1"/></linearGradient><linearGradient id="aigrd2" x1="12.274" x2="35.391" y1="32.416" y2="14.203" gradientUnits="userSpaceOnUse"><stop style="stop-color:#fbfbfb" id="stop3043" offset="0"/><stop style="stop-color:#b6b6b6" id="stop3045" offset=".5"/><stop style="stop-color:#e4e4e4" id="stop3047" offset="1"/></linearGradient><linearGradient id="aigrd1" x1="14.997" x2="32.511" y1="11.188" y2="34.307" gradientUnits="userSpaceOnUse"><stop style="stop-color:#ebebeb" id="stop3034" offset="0"/><stop style="stop-color:#fff" id="stop3036" offset=".5"/><stop style="stop-color:#ebebeb" id="stop3038" offset="1"/></linearGradient><linearGradient id="linearGradient23419"><stop style="stop-color:#000;stop-opacity:1" id="stop23421" offset="0"/><stop style="stop-color:#000;stop-opacity:0" id="stop23423" offset="1"/></linearGradient><radialGradient id="radialGradient3507" cx="23.335" cy="41.636" r="22.627" fx="23.335" fy="41.636" gradientTransform="matrix(1,0,0,0.25,0,31.22703)" gradientUnits="userSpaceOnUse" xlink:href="#linearGradient23419"/><linearGradient id="linearGradient3780" x1="24.512" x2="24.512" y1="5.873" y2="16.561" gradientTransform="translate(156.1887,-121.9111)" gradientUnits="userSpaceOnUse" xlink:href="#linearGradient2622"/><linearGradient id="linearGradient3776" x1="32.828" x2="60.071" y1="7.921" y2="7.868" gradientTransform="matrix(0.750458,0,0,1.33252,156.1887,-121.9111)" gradientUnits="userSpaceOnUse" xlink:href="#linearGradient2580"/><linearGradient id="linearGradient3773" x1="24.588" x2="22.436" y1="39.067" y2="15.192" gradientTransform="translate(156.1887,-121.9111)" gradientUnits="userSpaceOnUse" xlink:href="#linearGradient2614"/><linearGradient id="linearGradient3770" x1="21.53" x2="25.375" y1="20.313" y2="26.625" gradientTransform="translate(156.1887,-121.9111)" gradientUnits="userSpaceOnUse" xlink:href="#linearGradient2630"/><linearGradient id="linearGradient3766" x1="25.851" x2="24.996" y1="37.625" y2="25.25" gradientTransform="translate(156.1887,-121.9111)" gradientUnits="userSpaceOnUse" xlink:href="#linearGradient2339"/><linearGradient id="linearGradient3762" x1="25.851" x2="24.996" y1="37.625" y2="25.25" gradientUnits="userSpaceOnUse" xlink:href="#linearGradient2339"/><linearGradient id="linearGradient3760" x1="21.53" x2="25.375" y1="20.313" y2="26.625" gradientUnits="userSpaceOnUse" xlink:href="#linearGradient2630"/><linearGradient id="linearGradient3758" x1="24.588" x2="22.436" y1="39.067" y2="15.192" gradientUnits="userSpaceOnUse" xlink:href="#linearGradient2614"/><linearGradient id="linearGradient3756" x1="32.828" x2="60.071" y1="7.921" y2="7.868" gradientTransform="scale(0.750458,1.33252)" gradientUnits="userSpaceOnUse" xlink:href="#linearGradient2580"/><linearGradient id="linearGradient3754" x1="24.512" x2="24.512" y1="5.873" y2="16.561" gradientUnits="userSpaceOnUse" xlink:href="#linearGradient2622"/><linearGradient id="linearGradient2630"><stop style="stop-color:#fff;stop-opacity:1" id="stop2632" offset="0"/><stop style="stop-color:#fff;stop-opacity:0" id="stop2634" offset="1"/></linearGradient><linearGradient id="linearGradient2622"><stop style="stop-color:#e4a05d;stop-opacity:1" id="stop2624" offset="0"/><stop style="stop-color:#af651d;stop-opacity:1" id="stop2626" offset="1"/></linearGradient><linearGradient id="linearGradient2614"><stop style="stop-color:#e3aa57;stop-opacity:1" id="stop2616" offset="0"/><stop style="stop-color:#eabd7c;stop-opacity:1" id="stop2618" offset="1"/></linearGradient><linearGradient id="linearGradient2580"><stop id="stop2582" offset="0" style="stop-color:#fff;stop-opacity:1"/><stop id="stop2586" offset="1" style="stop-color:#729fcf;stop-opacity:0"/></linearGradient><linearGradient id="linearGradient2339"><stop style="stop-color:#fff;stop-opacity:1" id="stop2341" offset="0"/><stop style="stop-color:#fff;stop-opacity:0" id="stop2343" offset="1"/></linearGradient><linearGradient id="linearGradient320" x1="32.828" x2="60.071" y1="7.921" y2="7.868" gradientTransform="scale(0.750458,1.33252)" gradientUnits="userSpaceOnUse" xlink:href="#linearGradient2580"/><linearGradient id="linearGradient2345" x1="25.851" x2="24.996" y1="37.625" y2="25.25" gradientUnits="userSpaceOnUse" xlink:href="#linearGradient2339"/><linearGradient id="linearGradient2620" x1="24.588" x2="22.436" y1="39.067" y2="15.192" gradientUnits="userSpaceOnUse" xlink:href="#linearGradient2614"/><linearGradient id="linearGradient2628" x1="24.512" x2="24.512" y1="5.873" y2="16.561" gradientUnits="userSpaceOnUse" xlink:href="#linearGradient2622"/><linearGradient id="linearGradient2636" x1="21.53" x2="25.375" y1="20.313" y2="26.625" gradientUnits="userSpaceOnUse" xlink:href="#linearGradient2630"/><radialGradient id="radialGradient2823" cx="23.584" cy="43.636" r="22.728" fx="23.584" fy="43.636" gradientTransform="matrix(0.917623,-1.354978e-3,3.632022e-4,0.148463,1.926889,37.03865)" gradientUnits="userSpaceOnUse" xlink:href="#linearGradient2817"/><linearGradient id="linearGradient2817"><stop id="stop2819" offset="0" style="stop-color:#000;stop-opacity:1"/><stop id="stop2821" offset="1" style="stop-color:#000;stop-opacity:0"/></linearGradient><linearGradient id="linearGradient4928"><stop style="stop-color:#fce94f;stop-opacity:1" id="stop4930" offset="0"/><stop style="stop-color:#fce94f;stop-opacity:0" id="stop4932" offset="1"/></linearGradient><linearGradient id="linearGradient2300"><stop id="stop2302" offset="0" style="stop-color:#555753;stop-opacity:1"/><stop id="stop2304" offset="1" style="stop-color:#555753;stop-opacity:0"/></linearGradient><radialGradient id="radialGradient2596" cx="17.984" cy="40.604" r="21.031" fx="17.984" fy="40.604" gradientTransform="matrix(1.113818,4.37208e-16,-1.132524e-16,0.539348,-2.124098,18.94132)" gradientUnits="userSpaceOnUse" xlink:href="#linearGradient2300"/><radialGradient id="radialGradient2655" cx="24.013" cy="31.644" r="14.987" fx="24.013" fy="31.644" gradientTransform="matrix(1.285131,6.055921e-33,-3.821534e-32,1.066287,-23.06501,-20.14671)" gradientUnits="userSpaceOnUse" xlink:href="#linearGradient2649"/><linearGradient id="linearGradient2713" x1="18" x2="18" y1="39" y2="45.78" gradientTransform="matrix(0.376754,0,0,0.376754,-3.038656,-1.047418)" gradientUnits="userSpaceOnUse" xlink:href="#linearGradient2707"/><linearGradient id="linearGradient2360" x1="18" x2="18" y1="39" y2="45.78" gradientTransform="matrix(0.26974,0,0,0.26974,-2.473467,1.028051)" gradientUnits="userSpaceOnUse" xlink:href="#linearGradient2707"/><linearGradient id="linearGradient2375" x1="17.028" x2="19.608" y1="13.486" y2="9.017" gradientTransform="matrix(0.715959,0,0,0.715959,0.635691,-5.176078e-2)" gradientUnits="userSpaceOnUse" xlink:href="#linearGradient2369"/><linearGradient id="linearGradient4064" x1="11.993" x2="14.748" y1="10.977" y2="8.223" gradientTransform="matrix(0.753505,0,0,0.753505,-0.767527,-0.670662)" gradientUnits="userSpaceOnUse" xlink:href="#linearGradient4058"/><radialGradient id="radialGradient4067" cx="24.013" cy="31.644" r="14.987" fx="24.013" fy="31.644" gradientTransform="matrix(1.219701,6.927232e-33,-3.626968e-32,1.219702,-21.78888,-22.14112)" gradientUnits="userSpaceOnUse" xlink:href="#linearGradient2649"/><linearGradient id="linearGradient4361" x1="6.992" x2="9.079" y1="7.738" y2="5.65" gradientUnits="userSpaceOnUse" xlink:href="#linearGradient4355"/></defs><sodipodi:namedview id="base" fill="#fce94f" stroke="#888a85" bordercolor="#666666" borderopacity=".227" pagecolor="#ffffff" showgrid="true" showguides="true"/><metadata id="metadata1311"/><g id="layer1"><path style="opacity:.6;fill:none;fill-opacity:1;fill-rule:evenodd;stroke:none;stroke-width:1.51642048;stroke-miterlimit:4;stroke-dasharray:none;stroke-opacity:1" id="path2775" d="M 32.823063 18.894651 A 6.330162 2.1770399 0 1 1 20.162739,18.894651 A 6.330162 2.1770399 0 1 1 32.823063 18.894651 z" transform="matrix(0.224972,0,0,0.244543,7.749609,8.910385)" sodipodi:cx="26.493" sodipodi:cy="18.895" sodipodi:rx="6.33" sodipodi:ry="2.177" sodipodi:type="arc"/><path style="opacity:.6;fill:none;fill-opacity:1;fill-rule:evenodd;stroke:none;stroke-width:1.51642048;stroke-miterlimit:4;stroke-dasharray:none;stroke-opacity:1" id="path2779" d="M 32.823063 18.894651 A 6.330162 2.1770399 0 1 1 20.162739,18.894651 A 6.330162 2.1770399 0 1 1 32.823063 18.894651 z" transform="matrix(0.224972,0,0,0.244543,7.75304,8.201308)" sodipodi:cx="26.493" sodipodi:cy="18.895" sodipodi:rx="6.33" sodipodi:ry="2.177" sodipodi:type="arc"/><rect style="opacity:1;fill:#eeeeec;fill-opacity:1;fill-rule:evenodd;stroke:#555753;stroke-width:.99999911;stroke-miterlimit:4;stroke-dasharray:none;stroke-opacity:1" id="rect1354" width="14.003" height="14.003" x=".498" y=".498" rx="1.466" ry="1.466"/><rect style="opacity:1;fill:url(#radialGradient4067);fill-opacity:1;fill-rule:evenodd;stroke:none;stroke-width:.99999994;stroke-miterlimit:4;stroke-dasharray:none;stroke-opacity:1" id="rect2229" width="11" height="11" x="2" y="2" rx="1.625" ry="1.625"/><path style="opacity:.6;fill:none;fill-opacity:1;fill-rule:evenodd;stroke:none;stroke-width:1.51642048;stroke-miterlimit:4;stroke-dasharray:none;stroke-opacity:1" id="path2783" d="M 32.823063 18.894651 A 6.330162 2.1770399 0 1 1 20.162739,18.894651 A 6.330162 2.1770399 0 1 1 32.823063 18.894651 z" transform="matrix(0.224972,0,0,0.244543,7.75304,7.489953)" sodipodi:cx="26.493" sodipodi:cy="18.895" sodipodi:rx="6.33" sodipodi:ry="2.177" sodipodi:type="arc"/><rect style="opacity:1;fill:#888a85;fill-opacity:1;fill-rule:evenodd;stroke:none;stroke-width:1;stroke-miterlimit:4;stroke-dasharray:none;stroke-opacity:1" id="rect2600" width="1" height="10" x="12" y="-13" transform="matrix(1.564995e-19,1,-1,6.901622e-19,0,0)"/><path style="opacity:.6;fill:none;fill-opacity:1;fill-rule:evenodd;stroke:none;stroke-width:1.51642048;stroke-miterlimit:4;stroke-dasharray:none;stroke-opacity:1" id="path2787" d="M 32.823063 18.894651 A 6.330162 2.1770399 0 1 1 20.162739,18.894651 A 6.330162 2.1770399 0 1 1 32.823063 18.894651 z" transform="matrix(0.224972,0,0,0.244543,7.75304,6.776296)" sodipodi:cx="26.493" sodipodi:cy="18.895" sodipodi:rx="6.33" sodipodi:ry="2.177" sodipodi:type="arc"/><path style="opacity:.6;fill:none;fill-opacity:1;fill-rule:evenodd;stroke:none;stroke-width:1.51642048;stroke-miterlimit:4;stroke-dasharray:none;stroke-opacity:1" id="path2791" d="M 32.823063 18.894651 A 6.330162 2.1770399 0 1 1 20.162739,18.894651 A 6.330162 2.1770399 0 1 1 32.823063 18.894651 z" transform="matrix(0.224972,0,0,0.244543,7.75304,6.06495)" sodipodi:cx="26.493" sodipodi:cy="18.895" sodipodi:rx="6.33" sodipodi:ry="2.177" sodipodi:type="arc"/><rect style="opacity:1;fill:#d5d6d1;fill-opacity:1;fill-rule:evenodd;stroke:none;stroke-width:1;stroke-miterlimit:4;stroke-dasharray:none;stroke-opacity:1" id="rect2334" width="1" height="10" x="3" y="-13" transform="matrix(-2.612927e-17,1,-1,-5.879086e-17,0,0)"/><path style="opacity:.6;fill:none;fill-opacity:1;fill-rule:evenodd;stroke:none;stroke-width:1.51642048;stroke-miterlimit:4;stroke-dasharray:none;stroke-opacity:1" id="path2415" d="M 32.823063 18.894651 A 6.330162 2.1770399 0 1 1 20.162739,18.894651 A 6.330162 2.1770399 0 1 1 32.823063 18.894651 z" transform="matrix(0.224972,0,0,0.244543,5.953491,9.951903)" sodipodi:cx="26.493" sodipodi:cy="18.895" sodipodi:rx="6.33" sodipodi:ry="2.177" sodipodi:type="arc"/><path style="opacity:.6;fill:none;fill-opacity:1;fill-rule:evenodd;stroke:none;stroke-width:1.51642048;stroke-miterlimit:4;stroke-dasharray:none;stroke-opacity:1" id="path2419" d="M 32.823063 18.894651 A 6.330162 2.1770399 0 1 1 20.162739,18.894651 A 6.330162 2.1770399 0 1 1 32.823063 18.894651 z" transform="matrix(0.224972,0,0,0.244543,5.956912,9.242836)" sodipodi:cx="26.493" sodipodi:cy="18.895" sodipodi:rx="6.33" sodipodi:ry="2.177" sodipodi:type="arc"/><path style="opacity:.6;fill:none;fill-opacity:1;fill-rule:evenodd;stroke:none;stroke-width:1.51642048;stroke-miterlimit:4;stroke-dasharray:none;stroke-opacity:1" id="path2423" d="M 32.823063 18.894651 A 6.330162 2.1770399 0 1 1 20.162739,18.894651 A 6.330162 2.1770399 0 1 1 32.823063 18.894651 z" transform="matrix(0.224972,0,0,0.244543,5.956912,8.531471)" sodipodi:cx="26.493" sodipodi:cy="18.895" sodipodi:rx="6.33" sodipodi:ry="2.177" sodipodi:type="arc"/><path style="opacity:.6;fill:none;fill-opacity:1;fill-rule:evenodd;stroke:none;stroke-width:1.51642048;stroke-miterlimit:4;stroke-dasharray:none;stroke-opacity:1" id="path2427" d="M 32.823063 18.894651 A 6.330162 2.1770399 0 1 1 20.162739,18.894651 A 6.330162 2.1770399 0 1 1 32.823063 18.894651 z" transform="matrix(0.224972,0,0,0.244543,5.956912,7.817818)" sodipodi:cx="26.493" sodipodi:cy="18.895" sodipodi:rx="6.33" sodipodi:ry="2.177" sodipodi:type="arc"/><path style="opacity:.6;fill:none;fill-opacity:1;fill-rule:evenodd;stroke:none;stroke-width:1.51642048;stroke-miterlimit:4;stroke-dasharray:none;stroke-opacity:1" id="path2431" d="M 32.823063 18.894651 A 6.330162 2.1770399 0 1 1 20.162739,18.894651 A 6.330162 2.1770399 0 1 1 32.823063 18.894651 z" transform="matrix(0.224972,0,0,0.244543,5.956912,7.106457)" sodipodi:cx="26.493" sodipodi:cy="18.895" sodipodi:rx="6.33" sodipodi:ry="2.177" sodipodi:type="arc"/><rect style="opacity:1;fill:#d5d6d1;fill-opacity:1;fill-rule:evenodd;stroke:none;stroke-width:1;stroke-miterlimit:4;stroke-dasharray:none;stroke-opacity:1" id="rect4069" width="1" height="10" x="6" y="-13" transform="matrix(-2.612927e-17,1,-1,-5.879086e-17,0,0)"/><rect style="opacity:1;fill:#d5d6d1;fill-opacity:1;fill-rule:evenodd;stroke:none;stroke-width:1;stroke-miterlimit:4;stroke-dasharray:none;stroke-opacity:1" id="rect4081" width="1" height="10" x="11" y="2"/><rect style="opacity:1;fill:#d5d6d1;fill-opacity:1;fill-rule:evenodd;stroke:none;stroke-width:1;stroke-miterlimit:4;stroke-dasharray:none;stroke-opacity:1" id="rect4073" width="1" height="10" x="9" y="-13" transform="matrix(-2.612928e-17,1,-1,-5.879086e-17,0,0)"/><rect style="opacity:1;fill:#d5d6d1;fill-opacity:1;fill-rule:evenodd;stroke:none;stroke-width:1;stroke-miterlimit:4;stroke-dasharray:none;stroke-opacity:1" id="rect4075" width="1" height="10" x="5" y="2"/><rect style="opacity:1;fill:#d5d6d1;fill-opacity:1;fill-rule:evenodd;stroke:none;stroke-width:1;stroke-miterlimit:4;stroke-dasharray:none;stroke-opacity:1" id="rect4077" width="1" height="10" x="8" y="2"/><path style="opacity:1;fill:url(#linearGradient4361);fill-opacity:1;fill-rule:evenodd;stroke:none;stroke-width:1;stroke-miterlimit:4;stroke-dasharray:none;stroke-opacity:1" id="rect4346" d="M 2,8.28125 L 2.71875,9 L 4.9716829,6.9375 L 6.78125,8.9375 L 9.53125,6.15625 L 8.84375,5.46875 L 6.78125,7.53125 L 5.01249,5.53125 L 2,8.28125 z" sodipodi:nodetypes="ccccccccc"/><path style="opacity:1;fill:#fce94f;fill-opacity:1;fill-rule:evenodd;stroke:#786100;stroke-width:1.74698901;stroke-miterlimit:4;stroke-dasharray:none;stroke-opacity:1" id="path3163" d="M 32.823063 18.894651 A 6.330162 2.1770399 0 1 1 20.162739,18.894651 A 6.330162 2.1770399 0 1 1 32.823063 18.894651 z" transform="matrix(0.473882,0,0,0.691432,-5.449816e-2,0.93036)" sodipodi:cx="26.493" sodipodi:cy="18.895" sodipodi:rx="6.33" sodipodi:ry="2.177" sodipodi:type="arc"/><path style="opacity:1;fill:#fce94f;fill-opacity:1;fill-rule:evenodd;stroke:#8c7200;stroke-width:1.7476356;stroke-miterlimit:4;stroke-dasharray:none;stroke-opacity:1" id="path3165" d="M 32.823063 18.894651 A 6.330162 2.1770399 0 1 1 20.162739,18.894651 A 6.330162 2.1770399 0 1 1 32.823063 18.894651 z" transform="matrix(0.475303,0,0,0.688854,-0.1009,-1.015655)" sodipodi:cx="26.493" sodipodi:cy="18.895" sodipodi:rx="6.33" sodipodi:ry="2.177" sodipodi:type="arc"/><path style="opacity:1;fill:#fce94f;fill-opacity:1;fill-rule:evenodd;stroke:#8c7200;stroke-width:1.7476356;stroke-miterlimit:4;stroke-dasharray:none;stroke-opacity:1" id="path4363" d="M 32.823063 18.894651 A 6.330162 2.1770399 0 1 1 20.162739,18.894651 A 6.330162 2.1770399 0 1 1 32.823063 18.894651 z" transform="matrix(0.475303,0,0,0.688854,-0.1009,-3.015655)" sodipodi:cx="26.493" sodipodi:cy="18.895" sodipodi:rx="6.33" sodipodi:ry="2.177" sodipodi:type="arc"/><path style="opacity:1;fill:#fef293;fill-opacity:1;fill-rule:evenodd;stroke:#8c7200;stroke-width:1.75026429;stroke-miterlimit:4;stroke-dasharray:none;stroke-opacity:1" id="path3167" d="M 32.823063 18.894651 A 6.330162 2.1770399 0 1 1 20.162739,18.894651 A 6.330162 2.1770399 0 1 1 32.823063 18.894651 z" transform="matrix(0.474034,0,0,0.688624,-5.92472e-2,-5.011312)" sodipodi:cx="26.493" sodipodi:cy="18.895" sodipodi:rx="6.33" sodipodi:ry="2.177" sodipodi:type="arc"/><rect style="opacity:.75;fill:#888a85;fill-opacity:1;fill-rule:evenodd;stroke:none;stroke-width:1;stroke-miterlimit:4;stroke-dasharray:none;stroke-opacity:1" id="rect4344" width="1" height="1" x="12" y="-3" transform="matrix(1.564995e-20,1,-1,6.901621e-18,0,0)"/><rect style="opacity:1;fill:#888a85;fill-opacity:1;fill-rule:evenodd;stroke:none;stroke-width:1;stroke-miterlimit:4;stroke-dasharray:none;stroke-opacity:1" id="rect2231" width="1" height="9" x="2" y="3"/><path style="opacity:.2;fill:#fff;fill-opacity:1;fill-rule:evenodd;stroke:none;stroke-width:1;stroke-miterlimit:4;stroke-opacity:1" id="rect2743" d="M 2,2 L 13,2 C 8.5410924,3.3094674 8.842891,8.028044 2,8.028044 L 2,2 z" sodipodi:nodetypes="cccc"/></g></svg>