<svg xmlns="http://www.w3.org/2000/svg" xmlns:cc="http://web.resource.org/cc/" xmlns:sodipodi="http://inkscape.sourceforge.net/DTD/s odipodi-0.dtd" xmlns:svg="http://www.w3.org/2000/svg" xmlns:xlink="http://www.w3.org/1999/xlink" id="svg1306" width="48" height="48" sodipodi:docbase="/home/hbons/Desktop" sodipodi:docname="gnucash.svg" sodipodi:version=".32"><defs id="defs1308"><linearGradient id="linearGradient2707"><stop style="stop-color:#eeeeec;stop-opacity:1" id="stop2709" offset="0"/><stop style="stop-color:#eeeeec;stop-opacity:0" id="stop2711" offset="1"/></linearGradient><linearGradient id="linearGradient2649"><stop style="stop-color:#d3d7cf;stop-opacity:1" id="stop2651" offset="0"/><stop style="stop-color:#d3d7cf;stop-opacity:0" id="stop2653" offset="1"/></linearGradient><linearGradient id="linearGradient2632"><stop style="stop-color:#204a87;stop-opacity:1" id="stop2635" offset="0"/><stop style="stop-color:#204a87;stop-opacity:0" id="stop2637" offset="1"/></linearGradient><linearGradient id="linearGradient2623"><stop style="stop-color:#babdb6;stop-opacity:1" id="stop2625" offset="0"/><stop style="stop-color:#babdb6;stop-opacity:0" id="stop2627" offset="1"/></linearGradient><linearGradient id="aigrd2" x1="12.274" x2="35.391" y1="32.416" y2="14.203" gradientUnits="userSpaceOnUse"><stop style="stop-color:#fbfbfb" id="stop3043" offset="0"/><stop style="stop-color:#b6b6b6" id="stop3045" offset=".5"/><stop style="stop-color:#e4e4e4" id="stop3047" offset="1"/></linearGradient><linearGradient id="aigrd1" x1="14.997" x2="32.511" y1="11.188" y2="34.307" gradientUnits="userSpaceOnUse"><stop style="stop-color:#ebebeb" id="stop3034" offset="0"/><stop style="stop-color:#fff" id="stop3036" offset=".5"/><stop style="stop-color:#ebebeb" id="stop3038" offset="1"/></linearGradient><linearGradient id="linearGradient23419"><stop style="stop-color:#000;stop-opacity:1" id="stop23421" offset="0"/><stop style="stop-color:#000;stop-opacity:0" id="stop23423" offset="1"/></linearGradient><radialGradient id="radialGradient3507" cx="23.335" cy="41.636" r="22.627" fx="23.335" fy="41.636" gradientTransform="matrix(1,0,0,0.25,0,31.22703)" gradientUnits="userSpaceOnUse" xlink:href="#linearGradient23419"/><linearGradient id="linearGradient3780" x1="24.512" x2="24.512" y1="5.873" y2="16.561" gradientTransform="translate(156.1887,-121.9111)" gradientUnits="userSpaceOnUse" xlink:href="#linearGradient2622"/><linearGradient id="linearGradient3776" x1="32.828" x2="60.071" y1="7.921" y2="7.868" gradientTransform="matrix(0.750458,0,0,1.33252,156.1887,-121.9111)" gradientUnits="userSpaceOnUse" xlink:href="#linearGradient2580"/><linearGradient id="linearGradient3773" x1="24.588" x2="22.436" y1="39.067" y2="15.192" gradientTransform="translate(156.1887,-121.9111)" gradientUnits="userSpaceOnUse" xlink:href="#linearGradient2614"/><linearGradient id="linearGradient3770" x1="21.53" x2="25.375" y1="20.313" y2="26.625" gradientTransform="translate(156.1887,-121.9111)" gradientUnits="userSpaceOnUse" xlink:href="#linearGradient2630"/><linearGradient id="linearGradient3766" x1="25.851" x2="24.996" y1="37.625" y2="25.25" gradientTransform="translate(156.1887,-121.9111)" gradientUnits="userSpaceOnUse" xlink:href="#linearGradient2339"/><linearGradient id="linearGradient3762" x1="25.851" x2="24.996" y1="37.625" y2="25.25" gradientUnits="userSpaceOnUse" xlink:href="#linearGradient2339"/><linearGradient id="linearGradient3760" x1="21.53" x2="25.375" y1="20.313" y2="26.625" gradientUnits="userSpaceOnUse" xlink:href="#linearGradient2630"/><linearGradient id="linearGradient3758" x1="24.588" x2="22.436" y1="39.067" y2="15.192" gradientUnits="userSpaceOnUse" xlink:href="#linearGradient2614"/><linearGradient id="linearGradient3756" x1="32.828" x2="60.071" y1="7.921" y2="7.868" gradientTransform="scale(0.750458,1.33252)" gradientUnits="userSpaceOnUse" xlink:href="#linearGradient2580"/><linearGradient id="linearGradient3754" x1="24.512" x2="24.512" y1="5.873" y2="16.561" gradientUnits="userSpaceOnUse" xlink:href="#linearGradient2622"/><linearGradient id="linearGradient2630"><stop style="stop-color:#fff;stop-opacity:1" id="stop2632" offset="0"/><stop style="stop-color:#fff;stop-opacity:0" id="stop2634" offset="1"/></linearGradient><linearGradient id="linearGradient2622"><stop style="stop-color:#e4a05d;stop-opacity:1" id="stop2624" offset="0"/><stop style="stop-color:#af651d;stop-opacity:1" id="stop2626" offset="1"/></linearGradient><linearGradient id="linearGradient2614"><stop style="stop-color:#e3aa57;stop-opacity:1" id="stop2616" offset="0"/><stop style="stop-color:#eabd7c;stop-opacity:1" id="stop2618" offset="1"/></linearGradient><linearGradient id="linearGradient2580"><stop id="stop2582" offset="0" style="stop-color:#fff;stop-opacity:1"/><stop id="stop2586" offset="1" style="stop-color:#729fcf;stop-opacity:0"/></linearGradient><linearGradient id="linearGradient2339"><stop style="stop-color:#fff;stop-opacity:1" id="stop2341" offset="0"/><stop style="stop-color:#fff;stop-opacity:0" id="stop2343" offset="1"/></linearGradient><linearGradient id="linearGradient320" x1="32.828" x2="60.071" y1="7.921" y2="7.868" gradientTransform="scale(0.750458,1.33252)" gradientUnits="userSpaceOnUse" xlink:href="#linearGradient2580"/><linearGradient id="linearGradient2345" x1="25.851" x2="24.996" y1="37.625" y2="25.25" gradientUnits="userSpaceOnUse" xlink:href="#linearGradient2339"/><linearGradient id="linearGradient2620" x1="24.588" x2="22.436" y1="39.067" y2="15.192" gradientUnits="userSpaceOnUse" xlink:href="#linearGradient2614"/><linearGradient id="linearGradient2628" x1="24.512" x2="24.512" y1="5.873" y2="16.561" gradientUnits="userSpaceOnUse" xlink:href="#linearGradient2622"/><linearGradient id="linearGradient2636" x1="21.53" x2="25.375" y1="20.313" y2="26.625" gradientUnits="userSpaceOnUse" xlink:href="#linearGradient2630"/><radialGradient id="radialGradient2823" cx="23.584" cy="43.636" r="22.728" fx="23.584" fy="43.636" gradientTransform="matrix(0.917623,-1.354978e-3,3.632022e-4,0.148463,1.926889,37.03865)" gradientUnits="userSpaceOnUse" xlink:href="#linearGradient2817"/><linearGradient id="linearGradient2817"><stop id="stop2819" offset="0" style="stop-color:#000;stop-opacity:1"/><stop id="stop2821" offset="1" style="stop-color:#000;stop-opacity:0"/></linearGradient><linearGradient id="linearGradient4928"><stop style="stop-color:#fce94f;stop-opacity:1" id="stop4930" offset="0"/><stop style="stop-color:#fce94f;stop-opacity:0" id="stop4932" offset="1"/></linearGradient><linearGradient id="linearGradient2300"><stop id="stop2302" offset="0" style="stop-color:#555753;stop-opacity:1"/><stop id="stop2304" offset="1" style="stop-color:#555753;stop-opacity:0"/></linearGradient><radialGradient id="radialGradient2596" cx="17.984" cy="40.604" r="21.031" fx="17.984" fy="40.604" gradientTransform="matrix(1.113818,4.37208e-16,-1.132524e-16,0.539348,-2.124098,18.94132)" gradientUnits="userSpaceOnUse" xlink:href="#linearGradient2300"/><radialGradient id="radialGradient2629" cx="24.5" cy="18.593" r="14.5" fx="24.5" fy="18.593" gradientTransform="matrix(2.94027,6.52871e-16,-5.403068e-16,2.433326,-47.53659,-23.36654)" gradientUnits="userSpaceOnUse" xlink:href="#linearGradient2623"/><linearGradient id="linearGradient2639" x1="24.613" x2="29.182" y1="20.16" y2="12.246" gradientTransform="translate(9.536743e-7,1)" gradientUnits="userSpaceOnUse" xlink:href="#linearGradient2632"/><radialGradient id="radialGradient2655" cx="24.013" cy="31.644" r="14.987" fx="24.013" fy="31.644" gradientTransform="matrix(3.323547,1.57437e-32,-9.883069e-32,2.772052,-55.79564,-48.86618)" gradientUnits="userSpaceOnUse" xlink:href="#linearGradient2649"/><linearGradient id="linearGradient2713" x1="18" x2="18" y1="39" y2="45.78" gradientTransform="matrix(1,0,0,0.833333,0,7.5)" gradientUnits="userSpaceOnUse" xlink:href="#linearGradient2707"/></defs><sodipodi:namedview id="base" fill="#edd400" stroke="#888a85" bordercolor="#666666" borderopacity=".227" pagecolor="#ffffff" showgrid="true" showguides="true"/><metadata id="metadata1311"/><g id="layer1"><path style="opacity:.5;fill:url(#radialGradient2596);fill-opacity:1;fill-rule:evenodd;stroke:none;stroke-width:1;stroke-miterlimit:4;stroke-dasharray:none;stroke-opacity:1" id="path2290" d="M 39.692827 41.416107 A 21.030567 10.183721 0 1 1 -2.3683071,41.416107 A 21.030567 10.183721 0 1 1 39.692827 41.416107 z" transform="matrix(1.141197,0,0,0.834666,2.702704,4.931393)" sodipodi:cx="18.662" sodipodi:cy="41.416" sodipodi:rx="21.031" sodipodi:ry="10.184" sodipodi:type="arc"/><path style="opacity:1;fill:#edd400;fill-opacity:1;fill-rule:evenodd;stroke:#786100;stroke-width:1.04999924;stroke-miterlimit:4;stroke-dasharray:none;stroke-opacity:1" id="path2773" d="M 32.823063 18.894651 A 6.330162 2.1770399 0 1 1 20.162739,18.894651 A 6.330162 2.1770399 0 1 1 32.823063 18.894651 z" transform="matrix(0.790399,0,0,1.147562,20.5856,17.32042)" sodipodi:cx="26.493" sodipodi:cy="18.895" sodipodi:rx="6.33" sodipodi:ry="2.177" sodipodi:type="arc"/><path style="opacity:.6;fill:none;fill-opacity:1;fill-rule:evenodd;stroke:none;stroke-width:1.51642048;stroke-miterlimit:4;stroke-dasharray:none;stroke-opacity:1" id="path2775" d="M 32.823063 18.894651 A 6.330162 2.1770399 0 1 1 20.162739,18.894651 A 6.330162 2.1770399 0 1 1 32.823063 18.894651 z" transform="matrix(0.632511,0,0,0.687532,24.76613,26.01254)" sodipodi:cx="26.493" sodipodi:cy="18.895" sodipodi:rx="6.33" sodipodi:ry="2.177" sodipodi:type="arc"/><path style="opacity:1;fill:#edd400;fill-opacity:1;fill-rule:evenodd;stroke:#8c7200;stroke-width:1.04999924;stroke-miterlimit:4;stroke-dasharray:none;stroke-opacity:1" id="path2777" d="M 32.823063 18.894651 A 6.330162 2.1770399 0 1 1 20.162739,18.894651 A 6.330162 2.1770399 0 1 1 32.823063 18.894651 z" transform="matrix(0.790399,0,0,1.147562,20.59524,15.32685)" sodipodi:cx="26.493" sodipodi:cy="18.895" sodipodi:rx="6.33" sodipodi:ry="2.177" sodipodi:type="arc"/><path style="opacity:.6;fill:none;fill-opacity:1;fill-rule:evenodd;stroke:none;stroke-width:1.51642048;stroke-miterlimit:4;stroke-dasharray:none;stroke-opacity:1" id="path2779" d="M 32.823063 18.894651 A 6.330162 2.1770399 0 1 1 20.162739,18.894651 A 6.330162 2.1770399 0 1 1 32.823063 18.894651 z" transform="matrix(0.632511,0,0,0.687532,24.77577,24.01897)" sodipodi:cx="26.493" sodipodi:cy="18.895" sodipodi:rx="6.33" sodipodi:ry="2.177" sodipodi:type="arc"/><rect style="opacity:1;fill:#eeeeec;fill-opacity:1;fill-rule:evenodd;stroke:#555753;stroke-width:1.00000036;stroke-miterlimit:4;stroke-dasharray:none;stroke-opacity:1" id="rect1354" width="35.041" height="34.996" x="6.473" y="2.502" rx="2" ry="2"/><path style="opacity:1;fill:#edd400;fill-opacity:1;fill-rule:evenodd;stroke:#8c7200;stroke-width:1.04999924;stroke-miterlimit:4;stroke-dasharray:none;stroke-opacity:1" id="path2781" d="M 32.823063 18.894651 A 6.330162 2.1770399 0 1 1 20.162739,18.894651 A 6.330162 2.1770399 0 1 1 32.823063 18.894651 z" transform="matrix(0.790399,0,0,1.147562,20.59524,13.32686)" sodipodi:cx="26.493" sodipodi:cy="18.895" sodipodi:rx="6.33" sodipodi:ry="2.177" sodipodi:type="arc"/><rect style="opacity:1;fill:url(#radialGradient2655);fill-opacity:1;fill-rule:evenodd;stroke:none;stroke-width:.99999994;stroke-miterlimit:4;stroke-dasharray:none;stroke-opacity:1" id="rect2229" width="29.974" height="25" x="9.026" y="6" rx="1.625" ry="1.625"/><path style="opacity:.6;fill:none;fill-opacity:1;fill-rule:evenodd;stroke:none;stroke-width:1.51642048;stroke-miterlimit:4;stroke-dasharray:none;stroke-opacity:1" id="path2783" d="M 32.823063 18.894651 A 6.330162 2.1770399 0 1 1 20.162739,18.894651 A 6.330162 2.1770399 0 1 1 32.823063 18.894651 z" transform="matrix(0.632511,0,0,0.687532,24.77577,22.01897)" sodipodi:cx="26.493" sodipodi:cy="18.895" sodipodi:rx="6.33" sodipodi:ry="2.177" sodipodi:type="arc"/><path style="opacity:1;fill:url(#radialGradient2629);fill-opacity:1;fill-rule:evenodd;stroke:none;stroke-width:1;stroke-miterlimit:4;stroke-dasharray:none;stroke-opacity:1" id="rect2281" d="M 14.031251,6 L 14.031251,10 L 10.000001,10 L 10.000001,11 L 14.031251,11 L 14.031251,15 L 10.000001,15 L 10.000001,16 L 14.031251,16 L 14.031251,20 L 10.000001,20 L 10.000001,21 L 14.031251,21 L 14.031251,25 L 10.000001,25 L 10.000001,26 L 14.031251,26 L 14.031251,30 L 15.031251,30 L 15.031251,26 L 19.031251,26 L 19.031251,30 L 20.031251,30 L 20.031251,26 L 24.031251,26 L 24.031251,30 L 25.031251,30 L 25.031251,26 L 29.031251,26 L 29.031251,30 L 30.031251,30 L 30.031251,26 L 34.031251,26 L 34.031251,30 L 35.031251,30 L 35.031251,26 L 39.000001,26 L 39.000001,25 L 35.031251,25 L 35.031251,21 L 39.000001,21 L 39.000001,20 L 35.031251,20 L 35.031251,16 L 39.000001,16 L 39.000001,15 L 35.031251,15 L 35.031251,11 L 39.000001,11 L 39.000001,10 L 35.031251,10 L 35.031251,6 L 34.031251,6 L 34.031251,10 L 30.031251,10 L 30.031251,6 L 29.031251,6 L 29.031251,10 L 25.031251,10 L 25.031251,6 L 24.031251,6 L 24.031251,10 L 20.031251,10 L 20.031251,6 L 19.031251,6 L 19.031251,10 L 15.031251,10 L 15.031251,6 L 14.031251,6 z M 15.031251,11 L 19.031251,11 L 19.031251,15 L 15.031251,15 L 15.031251,11 z M 20.031251,11 L 24.031251,11 L 24.031251,15 L 20.031251,15 L 20.031251,11 z M 25.031251,11 L 29.031251,11 L 29.031251,15 L 25.031251,15 L 25.031251,11 z M 30.031251,11 L 34.031251,11 L 34.031251,15 L 30.031251,15 L 30.031251,11 z M 15.031251,16 L 19.031251,16 L 19.031251,20 L 15.031251,20 L 15.031251,16 z M 20.031251,16 L 24.031251,16 L 24.031251,20 L 20.031251,20 L 20.031251,16 z M 25.031251,16 L 29.031251,16 L 29.031251,20 L 25.031251,20 L 25.031251,16 z M 30.031251,16 L 34.031251,16 L 34.031251,20 L 30.031251,20 L 30.031251,16 z M 15.031251,21 L 19.031251,21 L 19.031251,25 L 15.031251,25 L 15.031251,21 z M 20.031251,21 L 24.031251,21 L 24.031251,25 L 20.031251,25 L 20.031251,21 z M 25.031251,21 L 29.031251,21 L 29.031251,25 L 25.031251,25 L 25.031251,21 z M 30.031251,21 L 34.031251,21 L 34.031251,25 L 30.031251,25 L 30.031251,21 z"/><path style="opacity:1;fill:#edd400;fill-opacity:1;fill-rule:evenodd;stroke:#8c7200;stroke-width:1.04999924;stroke-miterlimit:4;stroke-dasharray:none;stroke-opacity:1" id="path2785" d="M 32.823063 18.894651 A 6.330162 2.1770399 0 1 1 20.162739,18.894651 A 6.330162 2.1770399 0 1 1 32.823063 18.894651 z" transform="matrix(0.790399,0,0,1.147562,20.58267,11.32193)" sodipodi:cx="26.493" sodipodi:cy="18.895" sodipodi:rx="6.33" sodipodi:ry="2.177" sodipodi:type="arc"/><path style="opacity:1;fill:url(#linearGradient2639);fill-opacity:1;fill-rule:evenodd;stroke:none;stroke-width:1;stroke-miterlimit:4;stroke-dasharray:none;stroke-opacity:1" id="rect2293" d="M 28.531251,13 L 23.648235,21.817147 L 15.038453,17.019865 L 9.031251,26.5 L 9.906251,27 L 15.318426,18.273234 L 24.019866,23.054484 L 29.406251,13.5 L 28.531251,13 z" sodipodi:nodetypes="ccccccccc"/><rect style="opacity:1;fill:#888a85;fill-opacity:1;fill-rule:evenodd;stroke:none;stroke-width:1;stroke-miterlimit:4;stroke-dasharray:none;stroke-opacity:1" id="rect2600" width="1" height="30" x="30" y="-39" transform="matrix(4.694983e-19,1,-1,2.300541e-19,0,0)"/><path style="opacity:.6;fill:none;fill-opacity:1;fill-rule:evenodd;stroke:none;stroke-width:1.51642048;stroke-miterlimit:4;stroke-dasharray:none;stroke-opacity:1" id="path2787" d="M 32.823063 18.894651 A 6.330162 2.1770399 0 1 1 20.162739,18.894651 A 6.330162 2.1770399 0 1 1 32.823063 18.894651 z" transform="matrix(0.632511,0,0,0.687532,24.77577,20.01253)" sodipodi:cx="26.493" sodipodi:cy="18.895" sodipodi:rx="6.33" sodipodi:ry="2.177" sodipodi:type="arc"/><rect style="opacity:1;fill:#888a85;fill-opacity:1;fill-rule:evenodd;stroke:none;stroke-width:1;stroke-miterlimit:4;stroke-dasharray:none;stroke-opacity:1" id="rect2231" width="1" height="25" x="9.026" y="6"/><path style="fill:#4e9a06;fill-opacity:1;fill-rule:evenodd;stroke:#2e5c02;stroke-width:.99999976;stroke-miterlimit:4;stroke-opacity:1" id="path2321" d="M 1.4998397,34.48908 L 25.500165,34.48908 L 25.500165,40.514312 L 1.4998397,40.514312 L 1.4998397,34.48908 z"/><path style="fill:#59af05;fill-opacity:1;fill-rule:evenodd;stroke:#2e5c02;stroke-width:1;stroke-miterlimit:4;stroke-opacity:1" id="path2323" d="M 4.3258819,28.500695 L 24.597572,28.500695 L 25.500004,34.510156 L 1.499998,34.510156 L 4.3258819,28.500695 z" sodipodi:nodetypes="ccccc"/><rect style="fill:#2e5c02;fill-opacity:1;fill-rule:evenodd;stroke:none;stroke-width:1;stroke-miterlimit:4;stroke-dasharray:none;stroke-opacity:1" id="rect2325" width="23" height="1" x="2" y="38.037"/><rect style="fill:#2e5c02;fill-opacity:1;fill-rule:evenodd;stroke:none;stroke-width:1;stroke-miterlimit:4;stroke-dasharray:none;stroke-opacity:1" id="rect2327" width="23" height="1" x="2" y="36.037"/><path style="opacity:.25;fill:none;fill-opacity:1;fill-rule:evenodd;stroke:#fff;stroke-width:1;stroke-miterlimit:4;stroke-opacity:1" id="path2329" d="M 8.90625,34.53125 L 6.9375,38.46875 L 28.28125,38.46875 L 27.6875,34.53125 L 8.90625,34.53125 z" transform="translate(-3.968652,-4.979101)" sodipodi:nodetypes="ccccc"/><rect style="fill:#eeeeec;fill-opacity:1;fill-rule:evenodd;stroke:#555753;stroke-width:1.00000012;stroke-miterlimit:4;stroke-dasharray:none;stroke-opacity:1" id="rect2341" width="4.937" height="6.109" x="11.531" y="34.474"/><path style="opacity:1;fill:#2e5c02;fill-opacity:1;fill-rule:evenodd;stroke:none;stroke-width:1;stroke-miterlimit:4;stroke-dasharray:none;stroke-opacity:1" id="path2746" d="M 19.622213 -0.43681452 A 7.0710678 3.6239223 0 1 1 5.4800777,-0.43681452 A 7.0710678 3.6239223 0 1 1 19.622213 -0.43681452 z" transform="matrix(0.707107,0,0,0.413916,5.124996,31.68081)" sodipodi:cx="12.551" sodipodi:cy="-.437" sodipodi:rx="7.071" sodipodi:ry="3.624" sodipodi:type="arc"/><path style="opacity:1;fill:#d3d7cf;fill-opacity:1;fill-rule:evenodd;stroke:#555753;stroke-width:1.00000012;stroke-miterlimit:4;stroke-dasharray:none;stroke-opacity:1" id="path2715" d="M 12.5,28.495708 L 11.5,34.132869 L 11.5,40.504299 L 16.5,40.504299 L 16.5,34.078928 L 15.40625,28.495708 L 12.5,28.495708 z" sodipodi:nodetypes="ccccccc"/><path style="fill:#4e9a06;fill-opacity:1;fill-rule:evenodd;stroke:#2e5c02;stroke-width:.99999958;stroke-miterlimit:4;stroke-opacity:1" id="rect2271" d="M 5.4914627,39.471068 L 29.499977,39.471068 L 29.499977,45.510146 L 5.4914627,45.510146 L 5.4914627,39.471068 z"/><path style="opacity:.6;fill:none;fill-opacity:1;fill-rule:evenodd;stroke:#fff;stroke-width:1.24244022;stroke-miterlimit:4;stroke-dasharray:none;stroke-opacity:1" id="path3781" d="M 32.823063 18.894651 A 6.330162 2.1770399 0 1 1 20.162739,18.894651 A 6.330162 2.1770399 0 1 1 32.823063 18.894651 z" transform="matrix(0.94829,0,0,0.683138,51.81195,16.04905)" sodipodi:cx="26.493" sodipodi:cy="18.895" sodipodi:rx="6.33" sodipodi:ry="2.177" sodipodi:type="arc"/><path style="fill:#57ae06;fill-opacity:1;fill-rule:evenodd;stroke:#2e5c02;stroke-width:.99999964;stroke-miterlimit:4;stroke-opacity:1" id="path3816" d="M 7.4508179,33.505021 L 27.659493,33.505021 L 29.499378,39.498993 L 5.4999839,39.498993 L 7.4508179,33.505021 z" sodipodi:nodetypes="ccccc"/><path style="opacity:1;fill:#ecd300;fill-opacity:1;fill-rule:evenodd;stroke:#786100;stroke-width:1.04999924;stroke-miterlimit:4;stroke-dasharray:none;stroke-opacity:1" id="path2413" d="M 32.823063 18.894651 A 6.330162 2.1770399 0 1 1 20.162739,18.894651 A 6.330162 2.1770399 0 1 1 32.823063 18.894651 z" transform="matrix(0.790399,0,0,1.147562,15.57596,20.31399)" sodipodi:cx="26.493" sodipodi:cy="18.895" sodipodi:rx="6.33" sodipodi:ry="2.177" sodipodi:type="arc"/><path style="opacity:1;fill:#edd400;fill-opacity:1;fill-rule:evenodd;stroke:#8c7200;stroke-width:1.04999924;stroke-miterlimit:4;stroke-dasharray:none;stroke-opacity:1" id="path2789" d="M 32.823063 18.894651 A 6.330162 2.1770399 0 1 1 20.162739,18.894651 A 6.330162 2.1770399 0 1 1 32.823063 18.894651 z" transform="matrix(0.790399,0,0,1.147562,20.59524,9.320436)" sodipodi:cx="26.493" sodipodi:cy="18.895" sodipodi:rx="6.33" sodipodi:ry="2.177" sodipodi:type="arc"/><rect style="opacity:1;fill:#2e5c02;fill-opacity:1;fill-rule:evenodd;stroke:none;stroke-width:1;stroke-miterlimit:4;stroke-dasharray:none;stroke-opacity:1" id="rect2441" width="23" height="1" x="6" y="43"/><path style="opacity:.6;fill:none;fill-opacity:1;fill-rule:evenodd;stroke:none;stroke-width:1.51642048;stroke-miterlimit:4;stroke-dasharray:none;stroke-opacity:1" id="path2415" d="M 32.823063 18.894651 A 6.330162 2.1770399 0 1 1 20.162739,18.894651 A 6.330162 2.1770399 0 1 1 32.823063 18.894651 z" transform="matrix(0.632511,0,0,0.687532,19.75649,29.00611)" sodipodi:cx="26.493" sodipodi:cy="18.895" sodipodi:rx="6.33" sodipodi:ry="2.177" sodipodi:type="arc"/><rect style="opacity:1;fill:#2e5c02;fill-opacity:1;fill-rule:evenodd;stroke:none;stroke-width:1;stroke-miterlimit:4;stroke-dasharray:none;stroke-opacity:1" id="rect2443" width="23" height="1" x="6" y="41"/><path style="opacity:1;fill:#ecd300;fill-opacity:1;fill-rule:evenodd;stroke:#8c7200;stroke-width:1.04999924;stroke-miterlimit:4;stroke-dasharray:none;stroke-opacity:1" id="path2417" d="M 32.823063 18.894651 A 6.330162 2.1770399 0 1 1 20.162739,18.894651 A 6.330162 2.1770399 0 1 1 32.823063 18.894651 z" transform="matrix(0.790399,0,0,1.147562,15.5856,18.32042)" sodipodi:cx="26.493" sodipodi:cy="18.895" sodipodi:rx="6.33" sodipodi:ry="2.177" sodipodi:type="arc"/><path style="opacity:.6;fill:none;fill-opacity:1;fill-rule:evenodd;stroke:none;stroke-width:1.51642048;stroke-miterlimit:4;stroke-dasharray:none;stroke-opacity:1" id="path2791" d="M 32.823063 18.894651 A 6.330162 2.1770399 0 1 1 20.162739,18.894651 A 6.330162 2.1770399 0 1 1 32.823063 18.894651 z" transform="matrix(0.632511,0,0,0.687532,24.77577,18.01254)" sodipodi:cx="26.493" sodipodi:cy="18.895" sodipodi:rx="6.33" sodipodi:ry="2.177" sodipodi:type="arc"/><path style="opacity:.6;fill:none;fill-opacity:1;fill-rule:evenodd;stroke:none;stroke-width:1.51642048;stroke-miterlimit:4;stroke-dasharray:none;stroke-opacity:1" id="path2419" d="M 32.823063 18.894651 A 6.330162 2.1770399 0 1 1 20.162739,18.894651 A 6.330162 2.1770399 0 1 1 32.823063 18.894651 z" transform="matrix(0.632511,0,0,0.687532,19.76613,27.01254)" sodipodi:cx="26.493" sodipodi:cy="18.895" sodipodi:rx="6.33" sodipodi:ry="2.177" sodipodi:type="arc"/><path style="opacity:1;fill:#ecd300;fill-opacity:1;fill-rule:evenodd;stroke:#8c7200;stroke-width:1.04999924;stroke-miterlimit:4;stroke-dasharray:none;stroke-opacity:1" id="path2421" d="M 32.823063 18.894651 A 6.330162 2.1770399 0 1 1 20.162739,18.894651 A 6.330162 2.1770399 0 1 1 32.823063 18.894651 z" transform="matrix(0.790399,0,0,1.147562,15.5856,16.32043)" sodipodi:cx="26.493" sodipodi:cy="18.895" sodipodi:rx="6.33" sodipodi:ry="2.177" sodipodi:type="arc"/><path style="opacity:1;fill:#edd400;fill-opacity:1;fill-rule:evenodd;stroke:#8c7200;stroke-width:1.04999924;stroke-miterlimit:4;stroke-dasharray:none;stroke-opacity:1" id="path2797" d="M 32.823063 18.894651 A 6.330162 2.1770399 0 1 1 20.162739,18.894651 A 6.330162 2.1770399 0 1 1 32.823063 18.894651 z" transform="matrix(0.790399,0,0,1.147562,20.59524,7.325352)" sodipodi:cx="26.493" sodipodi:cy="18.895" sodipodi:rx="6.33" sodipodi:ry="2.177" sodipodi:type="arc"/><path style="opacity:.25;fill:none;fill-opacity:1;fill-rule:evenodd;stroke:#fff;stroke-width:1;stroke-miterlimit:4;stroke-opacity:1" id="path2269" d="M 8.21875,34.53125 L 6.9375,38.46875 L 28.09375,38.46875 L 26.875,34.53125 L 8.21875,34.53125 z"/><path style="opacity:.6;fill:none;fill-opacity:1;fill-rule:evenodd;stroke:none;stroke-width:1.51642048;stroke-miterlimit:4;stroke-dasharray:none;stroke-opacity:1" id="path2423" d="M 32.823063 18.894651 A 6.330162 2.1770399 0 1 1 20.162739,18.894651 A 6.330162 2.1770399 0 1 1 32.823063 18.894651 z" transform="matrix(0.632511,0,0,0.687532,19.76613,25.01254)" sodipodi:cx="26.493" sodipodi:cy="18.895" sodipodi:rx="6.33" sodipodi:ry="2.177" sodipodi:type="arc"/><path style="opacity:1;fill:#ecd300;fill-opacity:1;fill-rule:evenodd;stroke:#8c7200;stroke-width:1.04999924;stroke-miterlimit:4;stroke-dasharray:none;stroke-opacity:1" id="path2425" d="M 32.823063 18.894651 A 6.330162 2.1770399 0 1 1 20.162739,18.894651 A 6.330162 2.1770399 0 1 1 32.823063 18.894651 z" transform="matrix(0.790399,0,0,1.147562,15.57303,14.3155)" sodipodi:cx="26.493" sodipodi:cy="18.895" sodipodi:rx="6.33" sodipodi:ry="2.177" sodipodi:type="arc"/><path style="opacity:.6;fill:none;fill-opacity:1;fill-rule:evenodd;stroke:none;stroke-width:1.51642048;stroke-miterlimit:4;stroke-dasharray:none;stroke-opacity:1" id="path2427" d="M 32.823063 18.894651 A 6.330162 2.1770399 0 1 1 20.162739,18.894651 A 6.330162 2.1770399 0 1 1 32.823063 18.894651 z" transform="matrix(0.632511,0,0,0.687532,19.76613,23.0061)" sodipodi:cx="26.493" sodipodi:cy="18.895" sodipodi:rx="6.33" sodipodi:ry="2.177" sodipodi:type="arc"/><path style="opacity:1;fill:#edd400;fill-opacity:1;fill-rule:evenodd;stroke:#8c7200;stroke-width:1.04999924;stroke-miterlimit:4;stroke-dasharray:none;stroke-opacity:1" id="path2799" d="M 32.823063 18.894651 A 6.330162 2.1770399 0 1 1 20.162739,18.894651 A 6.330162 2.1770399 0 1 1 32.823063 18.894651 z" transform="matrix(0.790399,0,0,1.147562,20.58267,5.320422)" sodipodi:cx="26.493" sodipodi:cy="18.895" sodipodi:rx="6.33" sodipodi:ry="2.177" sodipodi:type="arc"/><path style="opacity:1;fill:#ecd300;fill-opacity:1;fill-rule:evenodd;stroke:#8c7200;stroke-width:1.04999924;stroke-miterlimit:4;stroke-dasharray:none;stroke-opacity:1" id="path2429" d="M 32.823063 18.894651 A 6.330162 2.1770399 0 1 1 20.162739,18.894651 A 6.330162 2.1770399 0 1 1 32.823063 18.894651 z" transform="matrix(0.790399,0,0,1.147562,15.5856,12.31401)" sodipodi:cx="26.493" sodipodi:cy="18.895" sodipodi:rx="6.33" sodipodi:ry="2.177" sodipodi:type="arc"/><path style="opacity:.6;fill:none;fill-opacity:1;fill-rule:evenodd;stroke:none;stroke-width:1.51642048;stroke-miterlimit:4;stroke-dasharray:none;stroke-opacity:1" id="path2431" d="M 32.823063 18.894651 A 6.330162 2.1770399 0 1 1 20.162739,18.894651 A 6.330162 2.1770399 0 1 1 32.823063 18.894651 z" transform="matrix(0.632511,0,0,0.687532,19.76613,21.00611)" sodipodi:cx="26.493" sodipodi:cy="18.895" sodipodi:rx="6.33" sodipodi:ry="2.177" sodipodi:type="arc"/><path style="opacity:1;fill:#2e5c02;fill-opacity:1;fill-rule:evenodd;stroke:none;stroke-width:1;stroke-miterlimit:4;stroke-dasharray:none;stroke-opacity:1" id="path2267" d="M 19.622213 -0.43681452 A 7.0710678 3.6239223 0 1 1 5.4800777,-0.43681452 A 7.0710678 3.6239223 0 1 1 19.622213 -0.43681452 z" transform="matrix(0.141421,0,0,0.137972,8.193788,33.5448)" sodipodi:cx="12.551" sodipodi:cy="-.437" sodipodi:rx="7.071" sodipodi:ry="3.624" sodipodi:type="arc"/><path style="opacity:1;fill:#2e5c02;fill-opacity:1;fill-rule:evenodd;stroke:none;stroke-width:1;stroke-miterlimit:4;stroke-dasharray:none;stroke-opacity:1" id="path3843" d="M 19.622213 -0.43681452 A 7.0710678 3.6239223 0 1 1 5.4800777,-0.43681452 A 7.0710678 3.6239223 0 1 1 19.622213 -0.43681452 z" transform="matrix(0.141421,0,0,0.137972,23.19379,33.5448)" sodipodi:cx="12.551" sodipodi:cy="-.437" sodipodi:rx="7.071" sodipodi:ry="3.624" sodipodi:type="arc"/><path style="opacity:1;fill:#2e5c02;fill-opacity:1;fill-rule:evenodd;stroke:none;stroke-width:1;stroke-miterlimit:4;stroke-dasharray:none;stroke-opacity:1" id="path3837" d="M 19.622213 -0.43681452 A 7.0710678 3.6239223 0 1 1 5.4800777,-0.43681452 A 7.0710678 3.6239223 0 1 1 19.622213 -0.43681452 z" transform="matrix(0.707106,0,0,0.413916,9.125006,36.68081)" sodipodi:cx="12.551" sodipodi:cy="-.437" sodipodi:rx="7.071" sodipodi:ry="3.624" sodipodi:type="arc"/><path style="opacity:1;fill:#2e5c02;fill-opacity:1;fill-rule:evenodd;stroke:none;stroke-width:1;stroke-miterlimit:4;stroke-dasharray:none;stroke-opacity:1" id="path3839" d="M 19.622213 -0.43681452 A 7.0710678 3.6239223 0 1 1 5.4800777,-0.43681452 A 7.0710678 3.6239223 0 1 1 19.622213 -0.43681452 z" transform="matrix(0.214339,0,0,0.137972,6.794191,37.5448)" sodipodi:cx="12.551" sodipodi:cy="-.437" sodipodi:rx="7.071" sodipodi:ry="3.624" sodipodi:type="arc"/><path style="opacity:1;fill:#2e5c02;fill-opacity:1;fill-rule:evenodd;stroke:none;stroke-width:1;stroke-miterlimit:4;stroke-dasharray:none;stroke-opacity:1" id="path3841" d="M 19.622213 -0.43681452 A 7.0710678 3.6239223 0 1 1 5.4800777,-0.43681452 A 7.0710678 3.6239223 0 1 1 19.622213 -0.43681452 z" transform="matrix(0.212132,0,0,0.137972,22.8375,37.56027)" sodipodi:cx="12.551" sodipodi:cy="-.437" sodipodi:rx="7.071" sodipodi:ry="3.624" sodipodi:type="arc"/><path style="opacity:1;fill:#d3d7cf;fill-opacity:1;fill-rule:evenodd;stroke:#555753;stroke-width:1.00000012;stroke-miterlimit:4;stroke-dasharray:none;stroke-opacity:1" id="rect1372" d="M 16.5,33.521308 L 15.5,39.146522 L 15.5,45.504449 L 20.5,45.504449 L 20.5,39.092695 L 19.40625,33.521308 L 16.5,33.521308 z" sodipodi:nodetypes="ccccccc"/><rect style="opacity:1;fill:#888a85;fill-opacity:1;fill-rule:evenodd;stroke:none;stroke-width:1;stroke-miterlimit:4;stroke-dasharray:none;stroke-opacity:1" id="rect2721" width="4" height="5" x="16" y="40"/><rect style="opacity:1;fill:url(#linearGradient2713);fill-opacity:1;fill-rule:evenodd;stroke:none;stroke-width:1;stroke-miterlimit:4;stroke-dasharray:none;stroke-opacity:1" id="rect2673" width="4" height="5" x="16" y="40"/><path style="opacity:1;fill:#2e5c02;fill-opacity:1;fill-rule:evenodd;stroke:none;stroke-width:1;stroke-miterlimit:4;stroke-dasharray:none;stroke-opacity:1" id="path2691" d="M 19.622213 -0.43681452 A 7.0710678 3.6239223 0 1 1 5.4800777,-0.43681452 A 7.0710678 3.6239223 0 1 1 19.622213 -0.43681452 z" transform="matrix(0.212132,0,0,0.137972,21.8375,35.56027)" sodipodi:cx="12.551" sodipodi:cy="-.437" sodipodi:rx="7.071" sodipodi:ry="3.624" sodipodi:type="arc"/><path style="opacity:1;fill:#2e5c02;fill-opacity:1;fill-rule:evenodd;stroke:none;stroke-width:1;stroke-miterlimit:4;stroke-dasharray:none;stroke-opacity:1" id="path2693" d="M 19.622213 -0.43681452 A 7.0710678 3.6239223 0 1 1 5.4800777,-0.43681452 A 7.0710678 3.6239223 0 1 1 19.622213 -0.43681452 z" transform="matrix(0.212132,0,0,0.137972,7.8375,35.56027)" sodipodi:cx="12.551" sodipodi:cy="-.437" sodipodi:rx="7.071" sodipodi:ry="3.624" sodipodi:type="arc"/><path style="opacity:.2;fill:#fff;fill-opacity:1;fill-rule:evenodd;stroke:none;stroke-width:1;stroke-miterlimit:4;stroke-opacity:1" id="rect2743" d="M 9.000001,6 L 39.000001,6 C 26.839345,9.9101256 27.66243,24 9.000001,24 L 9.000001,6 z" sodipodi:nodetypes="cccc"/><path style="opacity:1;fill:#2e5c02;fill-opacity:1;fill-rule:evenodd;stroke:none;stroke-width:1;stroke-miterlimit:4;stroke-dasharray:none;stroke-opacity:1" id="path2748" d="M 19.622213 -0.43681452 A 7.0710678 3.6239223 0 1 1 5.4800777,-0.43681452 A 7.0710678 3.6239223 0 1 1 19.622213 -0.43681452 z" transform="matrix(0.214339,0,0,0.137972,2.79419,32.56027)" sodipodi:cx="12.551" sodipodi:cy="-.437" sodipodi:rx="7.071" sodipodi:ry="3.624" sodipodi:type="arc"/><path style="opacity:1;fill:#2e5c02;fill-opacity:1;fill-rule:evenodd;stroke:none;stroke-width:1;stroke-miterlimit:4;stroke-dasharray:none;stroke-opacity:1" id="path2750" d="M 19.622213 -0.43681452 A 7.0710678 3.6239223 0 1 1 5.4800777,-0.43681452 A 7.0710678 3.6239223 0 1 1 19.622213 -0.43681452 z" transform="matrix(0.212132,0,0,0.137972,19.8375,32.56027)" sodipodi:cx="12.551" sodipodi:cy="-.437" sodipodi:rx="7.071" sodipodi:ry="3.624" sodipodi:type="arc"/><path style="opacity:1;fill:#2e5c02;fill-opacity:1;fill-rule:evenodd;stroke:none;stroke-width:1;stroke-miterlimit:4;stroke-dasharray:none;stroke-opacity:1" id="path2752" d="M 19.622213 -0.43681452 A 7.0710678 3.6239223 0 1 1 5.4800777,-0.43681452 A 7.0710678 3.6239223 0 1 1 19.622213 -0.43681452 z" transform="matrix(0.212132,0,0,0.137972,18.8375,30.56027)" sodipodi:cx="12.551" sodipodi:cy="-.437" sodipodi:rx="7.071" sodipodi:ry="3.624" sodipodi:type="arc"/><path style="opacity:1;fill:#2e5c02;fill-opacity:1;fill-rule:evenodd;stroke:none;stroke-width:1;stroke-miterlimit:4;stroke-dasharray:none;stroke-opacity:1" id="path2754" d="M 19.622213 -0.43681452 A 7.0710678 3.6239223 0 1 1 5.4800777,-0.43681452 A 7.0710678 3.6239223 0 1 1 19.622213 -0.43681452 z" transform="matrix(0.212132,0,0,0.137972,3.837501,30.56027)" sodipodi:cx="12.551" sodipodi:cy="-.437" sodipodi:rx="7.071" sodipodi:ry="3.624" sodipodi:type="arc"/><path style="opacity:1;fill:#edd400;fill-opacity:1;fill-rule:evenodd;stroke:#8c7200;stroke-width:1.04999924;stroke-miterlimit:4;stroke-dasharray:none;stroke-opacity:1" id="path2801" d="M 32.823063 18.894651 A 6.330162 2.1770399 0 1 1 20.162739,18.894651 A 6.330162 2.1770399 0 1 1 32.823063 18.894651 z" transform="matrix(0.790399,0,0,1.147562,20.59524,3.318928)" sodipodi:cx="26.493" sodipodi:cy="18.895" sodipodi:rx="6.33" sodipodi:ry="2.177" sodipodi:type="arc"/><path style="opacity:1;fill:#edd400;fill-opacity:1;fill-rule:evenodd;stroke:#8c7200;stroke-width:1.04999924;stroke-miterlimit:4;stroke-dasharray:none;stroke-opacity:1" id="path2809" d="M 32.823063 18.894651 A 6.330162 2.1770399 0 1 1 20.162739,18.894651 A 6.330162 2.1770399 0 1 1 32.823063 18.894651 z" transform="matrix(0.790399,0,0,1.147562,20.59524,1.318928)" sodipodi:cx="26.493" sodipodi:cy="18.895" sodipodi:rx="6.33" sodipodi:ry="2.177" sodipodi:type="arc"/><path style="opacity:1;fill:#fce94f;fill-opacity:1;fill-rule:evenodd;stroke:#8c7200;stroke-width:1.04999924;stroke-miterlimit:4;stroke-dasharray:none;stroke-opacity:1" id="path2793" d="M 32.823063 18.894651 A 6.330162 2.1770399 0 1 1 20.162739,18.894651 A 6.330162 2.1770399 0 1 1 32.823063 18.894651 z" transform="matrix(0.790399,0,0,1.147562,20.57596,-0.684495)" sodipodi:cx="26.493" sodipodi:cy="18.895" sodipodi:rx="6.33" sodipodi:ry="2.177" sodipodi:type="arc"/><path style="opacity:1;fill:#fce94f;fill-opacity:1;fill-rule:evenodd;stroke:#8c7200;stroke-width:1.04999924;stroke-miterlimit:4;stroke-dasharray:none;stroke-opacity:1" id="path2761" d="M 32.823063 18.894651 A 6.330162 2.1770399 0 1 1 20.162739,18.894651 A 6.330162 2.1770399 0 1 1 32.823063 18.894651 z" transform="matrix(0.790399,0,0,1.147562,15.56632,10.31401)" sodipodi:cx="26.493" sodipodi:cy="18.895" sodipodi:rx="6.33" sodipodi:ry="2.177" sodipodi:type="arc"/><path style="opacity:.5;fill:none;fill-opacity:1;fill-rule:evenodd;stroke:#fff;stroke-width:1.51642048;stroke-miterlimit:4;stroke-dasharray:none;stroke-opacity:1" id="path2763" d="M 32.823063 18.894651 A 6.330162 2.1770399 0 1 1 20.162739,18.894651 A 6.330162 2.1770399 0 1 1 32.823063 18.894651 z" transform="matrix(0.632511,0,0,0.687532,19.74685,19.00611)" sodipodi:cx="26.493" sodipodi:cy="18.895" sodipodi:rx="6.33" sodipodi:ry="2.177" sodipodi:type="arc"/><path style="opacity:.5;fill:none;fill-opacity:1;fill-rule:evenodd;stroke:#fff;stroke-width:1.51642048;stroke-miterlimit:4;stroke-dasharray:none;stroke-opacity:1" id="path2795" d="M 32.823063 18.894651 A 6.330162 2.1770399 0 1 1 20.162739,18.894651 A 6.330162 2.1770399 0 1 1 32.823063 18.894651 z" transform="matrix(0.632511,0,0,0.687532,24.74869,8.006107)" sodipodi:cx="26.493" sodipodi:cy="18.895" sodipodi:rx="6.33" sodipodi:ry="2.177" sodipodi:type="arc"/></g></svg>