<svg xmlns="http://www.w3.org/2000/svg" xmlns:cc="http://web.resource.org/cc/" xmlns:sodipodi="http://inkscape.sourceforge.net/DTD/s odipodi-0.dtd" xmlns:svg="http://www.w3.org/2000/svg" xmlns:xlink="http://www.w3.org/1999/xlink" id="svg1306" width="32" height="32" version="1.0" sodipodi:docbase="/home/hbons/Desktop" sodipodi:docname="gnucash32.svg" sodipodi:version=".32"><defs id="defs1308"><linearGradient id="linearGradient2369"><stop style="stop-color:#204a87;stop-opacity:1" id="stop2371" offset="0"/><stop style="stop-color:#204a87;stop-opacity:0" id="stop2373" offset="1"/></linearGradient><linearGradient id="linearGradient2707"><stop style="stop-color:#eeeeec;stop-opacity:1" id="stop2709" offset="0"/><stop style="stop-color:#eeeeec;stop-opacity:0" id="stop2711" offset="1"/></linearGradient><linearGradient id="linearGradient2649"><stop style="stop-color:#d3d7cf;stop-opacity:1" id="stop2651" offset="0"/><stop style="stop-color:#d3d7cf;stop-opacity:0" id="stop2653" offset="1"/></linearGradient><linearGradient id="aigrd2" x1="12.274" x2="35.391" y1="32.416" y2="14.203" gradientUnits="userSpaceOnUse"><stop style="stop-color:#fbfbfb" id="stop3043" offset="0"/><stop style="stop-color:#b6b6b6" id="stop3045" offset=".5"/><stop style="stop-color:#e4e4e4" id="stop3047" offset="1"/></linearGradient><linearGradient id="aigrd1" x1="14.997" x2="32.511" y1="11.188" y2="34.307" gradientUnits="userSpaceOnUse"><stop style="stop-color:#ebebeb" id="stop3034" offset="0"/><stop style="stop-color:#fff" id="stop3036" offset=".5"/><stop style="stop-color:#ebebeb" id="stop3038" offset="1"/></linearGradient><linearGradient id="linearGradient23419"><stop style="stop-color:#000;stop-opacity:1" id="stop23421" offset="0"/><stop style="stop-color:#000;stop-opacity:0" id="stop23423" offset="1"/></linearGradient><radialGradient id="radialGradient3507" cx="23.335" cy="41.636" r="22.627" fx="23.335" fy="41.636" gradientTransform="matrix(1,0,0,0.25,0,31.22703)" gradientUnits="userSpaceOnUse" xlink:href="#linearGradient23419"/><linearGradient id="linearGradient3780" x1="24.512" x2="24.512" y1="5.873" y2="16.561" gradientTransform="translate(156.1887,-121.9111)" gradientUnits="userSpaceOnUse" xlink:href="#linearGradient2622"/><linearGradient id="linearGradient3776" x1="32.828" x2="60.071" y1="7.921" y2="7.868" gradientTransform="matrix(0.750458,0,0,1.33252,156.1887,-121.9111)" gradientUnits="userSpaceOnUse" xlink:href="#linearGradient2580"/><linearGradient id="linearGradient3773" x1="24.588" x2="22.436" y1="39.067" y2="15.192" gradientTransform="translate(156.1887,-121.9111)" gradientUnits="userSpaceOnUse" xlink:href="#linearGradient2614"/><linearGradient id="linearGradient3770" x1="21.53" x2="25.375" y1="20.313" y2="26.625" gradientTransform="translate(156.1887,-121.9111)" gradientUnits="userSpaceOnUse" xlink:href="#linearGradient2630"/><linearGradient id="linearGradient3766" x1="25.851" x2="24.996" y1="37.625" y2="25.25" gradientTransform="translate(156.1887,-121.9111)" gradientUnits="userSpaceOnUse" xlink:href="#linearGradient2339"/><linearGradient id="linearGradient3762" x1="25.851" x2="24.996" y1="37.625" y2="25.25" gradientUnits="userSpaceOnUse" xlink:href="#linearGradient2339"/><linearGradient id="linearGradient3760" x1="21.53" x2="25.375" y1="20.313" y2="26.625" gradientUnits="userSpaceOnUse" xlink:href="#linearGradient2630"/><linearGradient id="linearGradient3758" x1="24.588" x2="22.436" y1="39.067" y2="15.192" gradientUnits="userSpaceOnUse" xlink:href="#linearGradient2614"/><linearGradient id="linearGradient3756" x1="32.828" x2="60.071" y1="7.921" y2="7.868" gradientTransform="scale(0.750458,1.33252)" gradientUnits="userSpaceOnUse" xlink:href="#linearGradient2580"/><linearGradient id="linearGradient3754" x1="24.512" x2="24.512" y1="5.873" y2="16.561" gradientUnits="userSpaceOnUse" xlink:href="#linearGradient2622"/><linearGradient id="linearGradient2630"><stop style="stop-color:#fff;stop-opacity:1" id="stop2632" offset="0"/><stop style="stop-color:#fff;stop-opacity:0" id="stop2634" offset="1"/></linearGradient><linearGradient id="linearGradient2622"><stop style="stop-color:#e4a05d;stop-opacity:1" id="stop2624" offset="0"/><stop style="stop-color:#af651d;stop-opacity:1" id="stop2626" offset="1"/></linearGradient><linearGradient id="linearGradient2614"><stop style="stop-color:#e3aa57;stop-opacity:1" id="stop2616" offset="0"/><stop style="stop-color:#eabd7c;stop-opacity:1" id="stop2618" offset="1"/></linearGradient><linearGradient id="linearGradient2580"><stop id="stop2582" offset="0" style="stop-color:#fff;stop-opacity:1"/><stop id="stop2586" offset="1" style="stop-color:#729fcf;stop-opacity:0"/></linearGradient><linearGradient id="linearGradient2339"><stop style="stop-color:#fff;stop-opacity:1" id="stop2341" offset="0"/><stop style="stop-color:#fff;stop-opacity:0" id="stop2343" offset="1"/></linearGradient><linearGradient id="linearGradient320" x1="32.828" x2="60.071" y1="7.921" y2="7.868" gradientTransform="scale(0.750458,1.33252)" gradientUnits="userSpaceOnUse" xlink:href="#linearGradient2580"/><linearGradient id="linearGradient2345" x1="25.851" x2="24.996" y1="37.625" y2="25.25" gradientUnits="userSpaceOnUse" xlink:href="#linearGradient2339"/><linearGradient id="linearGradient2620" x1="24.588" x2="22.436" y1="39.067" y2="15.192" gradientUnits="userSpaceOnUse" xlink:href="#linearGradient2614"/><linearGradient id="linearGradient2628" x1="24.512" x2="24.512" y1="5.873" y2="16.561" gradientUnits="userSpaceOnUse" xlink:href="#linearGradient2622"/><linearGradient id="linearGradient2636" x1="21.53" x2="25.375" y1="20.313" y2="26.625" gradientUnits="userSpaceOnUse" xlink:href="#linearGradient2630"/><radialGradient id="radialGradient2823" cx="23.584" cy="43.636" r="22.728" fx="23.584" fy="43.636" gradientTransform="matrix(0.917623,-1.354978e-3,3.632022e-4,0.148463,1.926889,37.03865)" gradientUnits="userSpaceOnUse" xlink:href="#linearGradient2817"/><linearGradient id="linearGradient2817"><stop id="stop2819" offset="0" style="stop-color:#000;stop-opacity:1"/><stop id="stop2821" offset="1" style="stop-color:#000;stop-opacity:0"/></linearGradient><linearGradient id="linearGradient4928"><stop style="stop-color:#fce94f;stop-opacity:1" id="stop4930" offset="0"/><stop style="stop-color:#fce94f;stop-opacity:0" id="stop4932" offset="1"/></linearGradient><linearGradient id="linearGradient2300"><stop id="stop2302" offset="0" style="stop-color:#555753;stop-opacity:1"/><stop id="stop2304" offset="1" style="stop-color:#555753;stop-opacity:0"/></linearGradient><radialGradient id="radialGradient2596" cx="17.984" cy="40.604" r="21.031" fx="17.984" fy="40.604" gradientTransform="matrix(1.113818,4.37208e-16,-1.132524e-16,0.539348,-2.124098,18.94132)" gradientUnits="userSpaceOnUse" xlink:href="#linearGradient2300"/><radialGradient id="radialGradient2655" cx="24.013" cy="31.644" r="14.987" fx="24.013" fy="31.644" gradientTransform="matrix(2.106758,1.070572e-32,-6.264763e-32,1.884995,-35.08986,-32.309)" gradientUnits="userSpaceOnUse" xlink:href="#linearGradient2649"/><linearGradient id="linearGradient2713" x1="18" x2="18" y1="39" y2="45.78" gradientTransform="matrix(0.5,0,0,0.5,3.000001,7.5)" gradientUnits="userSpaceOnUse" xlink:href="#linearGradient2707"/><linearGradient id="linearGradient2360" x1="18" x2="18" y1="39" y2="45.78" gradientTransform="matrix(0.5,0,0,0.5,0.873837,4.404429)" gradientUnits="userSpaceOnUse" xlink:href="#linearGradient2707"/><linearGradient id="linearGradient2375" x1="17.028" x2="19.608" y1="13.486" y2="9.017" gradientUnits="userSpaceOnUse" xlink:href="#linearGradient2369"/></defs><sodipodi:namedview id="base" fill="#fce94f" stroke="#888a85" bordercolor="#666666" borderopacity=".227" pagecolor="#ffffff" showgrid="true" showguides="true"/><metadata id="metadata1311"/><g id="layer1"><path style="opacity:.5;fill:url(#radialGradient2596);fill-opacity:1;fill-rule:evenodd;stroke:none;stroke-width:1;stroke-miterlimit:4;stroke-dasharray:none;stroke-opacity:1" id="path2290" d="M 39.692827 41.416107 A 21.030567 10.183721 0 1 1 -2.3683071,41.416107 A 21.030567 10.183721 0 1 1 39.692827 41.416107 z" transform="matrix(0.760797,0,0,0.540078,1.8018,4.132085)" sodipodi:cx="18.662" sodipodi:cy="41.416" sodipodi:rx="21.031" sodipodi:ry="10.184" sodipodi:type="arc"/><path style="opacity:1;fill:#fce94f;fill-opacity:1;fill-rule:evenodd;stroke:#786100;stroke-width:1.39881253;stroke-miterlimit:4;stroke-dasharray:none;stroke-opacity:1" id="path2773" d="M 32.823063 18.894651 A 6.330162 2.1770399 0 1 1 20.162739,18.894651 A 6.330162 2.1770399 0 1 1 32.823063 18.894651 z" transform="matrix(0.552164,0,0,0.925577,12.37157,9.996526)" sodipodi:cx="26.493" sodipodi:cy="18.895" sodipodi:rx="6.33" sodipodi:ry="2.177" sodipodi:type="arc"/><path style="opacity:.6;fill:none;fill-opacity:1;fill-rule:evenodd;stroke:none;stroke-width:1.51642048;stroke-miterlimit:4;stroke-dasharray:none;stroke-opacity:1" id="path2775" d="M 32.823063 18.894651 A 6.330162 2.1770399 0 1 1 20.162739,18.894651 A 6.330162 2.1770399 0 1 1 32.823063 18.894651 z" transform="matrix(0.417017,0,0,0.453293,16.32841,17.83212)" sodipodi:cx="26.493" sodipodi:cy="18.895" sodipodi:rx="6.33" sodipodi:ry="2.177" sodipodi:type="arc"/><path style="opacity:.6;fill:none;fill-opacity:1;fill-rule:evenodd;stroke:none;stroke-width:1.51642048;stroke-miterlimit:4;stroke-dasharray:none;stroke-opacity:1" id="path2779" d="M 32.823063 18.894651 A 6.330162 2.1770399 0 1 1 20.162739,18.894651 A 6.330162 2.1770399 0 1 1 32.823063 18.894651 z" transform="matrix(0.417017,0,0,0.453293,16.33477,16.51775)" sodipodi:cx="26.493" sodipodi:cy="18.895" sodipodi:rx="6.33" sodipodi:ry="2.177" sodipodi:type="arc"/><rect style="opacity:1;fill:#eeeeec;fill-opacity:1;fill-rule:evenodd;stroke:#555753;stroke-width:.99999982;stroke-miterlimit:4;stroke-dasharray:none;stroke-opacity:1" id="rect1354" width="23.002" height="23.002" x="4.498" y="2.498" rx="1.546" ry="1.546"/><rect style="opacity:1;fill:url(#radialGradient2655);fill-opacity:1;fill-rule:evenodd;stroke:none;stroke-width:.99999994;stroke-miterlimit:4;stroke-dasharray:none;stroke-opacity:1" id="rect2229" width="19" height="17" x="6" y="5" rx="1.625" ry="1.625"/><rect style="opacity:1;fill:#d5d6d1;fill-opacity:1;fill-rule:evenodd;stroke:none;stroke-width:1;stroke-miterlimit:4;stroke-dasharray:none;stroke-opacity:1" id="rect2324" width="1" height="15" x="10" y="5"/><path style="opacity:.6;fill:none;fill-opacity:1;fill-rule:evenodd;stroke:none;stroke-width:1.51642048;stroke-miterlimit:4;stroke-dasharray:none;stroke-opacity:1" id="path2783" d="M 32.823063 18.894651 A 6.330162 2.1770399 0 1 1 20.162739,18.894651 A 6.330162 2.1770399 0 1 1 32.823063 18.894651 z" transform="matrix(0.417017,0,0,0.453293,16.33477,15.19914)" sodipodi:cx="26.493" sodipodi:cy="18.895" sodipodi:rx="6.33" sodipodi:ry="2.177" sodipodi:type="arc"/><rect style="opacity:1;fill:#888a85;fill-opacity:1;fill-rule:evenodd;stroke:none;stroke-width:1;stroke-miterlimit:4;stroke-dasharray:none;stroke-opacity:1" id="rect2600" width="1" height="20" x="22" y="-26" transform="matrix(3.129989e-19,1,-1,3.450811e-19,0,0)"/><path style="opacity:.6;fill:none;fill-opacity:1;fill-rule:evenodd;stroke:none;stroke-width:1.51642048;stroke-miterlimit:4;stroke-dasharray:none;stroke-opacity:1" id="path2787" d="M 32.823063 18.894651 A 6.330162 2.1770399 0 1 1 20.162739,18.894651 A 6.330162 2.1770399 0 1 1 32.823063 18.894651 z" transform="matrix(0.417017,0,0,0.453293,16.33477,13.87629)" sodipodi:cx="26.493" sodipodi:cy="18.895" sodipodi:rx="6.33" sodipodi:ry="2.177" sodipodi:type="arc"/><rect style="opacity:1;fill:#d5d6d1;fill-opacity:1;fill-rule:evenodd;stroke:none;stroke-width:1;stroke-miterlimit:4;stroke-dasharray:none;stroke-opacity:1" id="rect2328" width="1" height="15" x="14" y="5"/><rect style="opacity:1;fill:#d5d6d1;fill-opacity:1;fill-rule:evenodd;stroke:none;stroke-width:1;stroke-miterlimit:4;stroke-dasharray:none;stroke-opacity:1" id="rect2330" width="1" height="15" x="18" y="5"/><rect style="opacity:1;fill:#d5d6d1;fill-opacity:1;fill-rule:evenodd;stroke:none;stroke-width:1;stroke-miterlimit:4;stroke-dasharray:none;stroke-opacity:1" id="rect2334" width="1" height="18" x="6" y="-25" transform="matrix(-4.703269e-17,1,-1,-3.266159e-17,0,0)"/><rect style="opacity:1;fill:#d5d6d1;fill-opacity:1;fill-rule:evenodd;stroke:none;stroke-width:1;stroke-miterlimit:4;stroke-dasharray:none;stroke-opacity:1" id="rect2332" width="1" height="15" x="22" y="5"/><rect style="opacity:1;fill:#d5d6d1;fill-opacity:1;fill-rule:evenodd;stroke:none;stroke-width:1;stroke-miterlimit:4;stroke-dasharray:none;stroke-opacity:1" id="rect2336" width="1" height="18" x="10" y="-25" transform="matrix(-4.703269e-17,1,-1,-3.266159e-17,0,0)"/><path style="opacity:1;fill:#fce94f;fill-opacity:1;fill-rule:evenodd;stroke:#8c7200;stroke-width:1.40757668;stroke-miterlimit:4;stroke-dasharray:none;stroke-opacity:1" id="path2318" d="M 32.823063 18.894651 A 6.330162 2.1770399 0 1 1 20.162739,18.894651 A 6.330162 2.1770399 0 1 1 32.823063 18.894651 z" transform="matrix(0.552842,0,0,0.912966,12.35361,8.249818)" sodipodi:cx="26.493" sodipodi:cy="18.895" sodipodi:rx="6.33" sodipodi:ry="2.177" sodipodi:type="arc"/><path style="opacity:.6;fill:none;fill-opacity:1;fill-rule:evenodd;stroke:none;stroke-width:1.51642048;stroke-miterlimit:4;stroke-dasharray:none;stroke-opacity:1" id="path2791" d="M 32.823063 18.894651 A 6.330162 2.1770399 0 1 1 20.162739,18.894651 A 6.330162 2.1770399 0 1 1 32.823063 18.894651 z" transform="matrix(0.417017,0,0,0.453293,16.33477,12.55769)" sodipodi:cx="26.493" sodipodi:cy="18.895" sodipodi:rx="6.33" sodipodi:ry="2.177" sodipodi:type="arc"/><path style="opacity:1;fill:#fce94f;fill-opacity:1;fill-rule:evenodd;stroke:#8c7200;stroke-width:1.40719557;stroke-miterlimit:4;stroke-dasharray:none;stroke-opacity:1" id="path2316" d="M 32.823063 18.894651 A 6.330162 2.1770399 0 1 1 20.162739,18.894651 A 6.330162 2.1770399 0 1 1 32.823063 18.894651 z" transform="matrix(0.552842,0,0,0.913462,12.35361,6.240447)" sodipodi:cx="26.493" sodipodi:cy="18.895" sodipodi:rx="6.33" sodipodi:ry="2.177" sodipodi:type="arc"/><rect style="opacity:1;fill:#d5d6d1;fill-opacity:1;fill-rule:evenodd;stroke:none;stroke-width:1;stroke-miterlimit:4;stroke-dasharray:none;stroke-opacity:1" id="rect2338" width="1" height="18" x="14" y="-25" transform="matrix(-4.703269e-17,1,-1,-3.266159e-17,0,0)"/><path style="opacity:1;fill:#fce94f;fill-opacity:1;fill-rule:evenodd;stroke:#8c7200;stroke-width:1.40619075;stroke-miterlimit:4;stroke-dasharray:none;stroke-opacity:1" id="path2314" d="M 32.823063 18.894651 A 6.330162 2.1770399 0 1 1 20.162739,18.894651 A 6.330162 2.1770399 0 1 1 32.823063 18.894651 z" transform="matrix(0.552842,0,0,0.914768,12.35361,4.228712)" sodipodi:cx="26.493" sodipodi:cy="18.895" sodipodi:rx="6.33" sodipodi:ry="2.177" sodipodi:type="arc"/><rect style="opacity:1;fill:#d5d6d1;fill-opacity:1;fill-rule:evenodd;stroke:none;stroke-width:1;stroke-miterlimit:4;stroke-dasharray:none;stroke-opacity:1" id="rect2340" width="1" height="18" x="18" y="-25" transform="matrix(-4.703269e-17,1,-1,-3.266159e-17,0,0)"/><path style="opacity:1;fill:#fce94f;fill-opacity:1;fill-rule:evenodd;stroke:#8c7200;stroke-width:1.40706623;stroke-miterlimit:4;stroke-dasharray:none;stroke-opacity:1" id="path2312" d="M 32.823063 18.894651 A 6.330162 2.1770399 0 1 1 20.162739,18.894651 A 6.330162 2.1770399 0 1 1 32.823063 18.894651 z" transform="matrix(0.552842,0,0,0.91363,12.35361,2.237287)" sodipodi:cx="26.493" sodipodi:cy="18.895" sodipodi:rx="6.33" sodipodi:ry="2.177" sodipodi:type="arc"/><path style="opacity:1;fill:#fce94f;fill-opacity:1;fill-rule:evenodd;stroke:#8c7200;stroke-width:1.40849555;stroke-miterlimit:4;stroke-dasharray:none;stroke-opacity:1" id="path2310" d="M 32.823063 18.894651 A 6.330162 2.1770399 0 1 1 20.162739,18.894651 A 6.330162 2.1770399 0 1 1 32.823063 18.894651 z" transform="matrix(0.552842,0,0,0.911777,12.35361,0.272299)" sodipodi:cx="26.493" sodipodi:cy="18.895" sodipodi:rx="6.33" sodipodi:ry="2.177" sodipodi:type="arc"/><path style="opacity:1;fill:#fce94f;fill-opacity:1;fill-rule:evenodd;stroke:#8c7200;stroke-width:1.40459692;stroke-miterlimit:4;stroke-dasharray:none;stroke-opacity:1" id="path2809" d="M 32.823063 18.894651 A 6.330162 2.1770399 0 1 1 20.162739,18.894651 A 6.330162 2.1770399 0 1 1 32.823063 18.894651 z" transform="matrix(0.552842,0,0,0.916844,12.35361,-1.823448)" sodipodi:cx="26.493" sodipodi:cy="18.895" sodipodi:rx="6.33" sodipodi:ry="2.177" sodipodi:type="arc"/><path style="opacity:1;fill:#fef293;fill-opacity:1;fill-rule:evenodd;stroke:#8c7200;stroke-width:1.40411866;stroke-miterlimit:4;stroke-dasharray:none;stroke-opacity:1" id="path2793" d="M 32.823063 18.894651 A 6.330162 2.1770399 0 1 1 20.162739,18.894651 A 6.330162 2.1770399 0 1 1 32.823063 18.894651 z" transform="matrix(0.552907,0,0,0.917359,12.3519,-3.833177)" sodipodi:cx="26.493" sodipodi:cy="18.895" sodipodi:rx="6.33" sodipodi:ry="2.177" sodipodi:type="arc"/><path style="opacity:1;fill:url(#linearGradient2375);fill-opacity:1;fill-rule:evenodd;stroke:none;stroke-width:1;stroke-miterlimit:4;stroke-dasharray:none;stroke-opacity:1" id="rect2362" d="M 19.125,9 L 15.9375,14.332376 L 10.125,11.1875 L 6.25,17.625 L 6.8377379,18.412262 L 10.375,12.5 L 16.279029,15.5625 L 20,9.5 L 19.125,9 z" sodipodi:nodetypes="ccccccccc"/><rect style="opacity:1;fill:#888a85;fill-opacity:1;fill-rule:evenodd;stroke:none;stroke-width:1;stroke-miterlimit:4;stroke-dasharray:none;stroke-opacity:1" id="rect2231" width="1" height="16" x="6" y="5"/><path style="opacity:.2;fill:#fff;fill-opacity:1;fill-rule:evenodd;stroke:none;stroke-width:1;stroke-miterlimit:4;stroke-opacity:1" id="rect2743" d="M 6,5 L 25,5 C 17.298251,7.6067497 17.819538,17 6,17 L 6,5 z" sodipodi:nodetypes="cccc"/><rect style="fill:#eeeeec;fill-opacity:1;fill-rule:evenodd;stroke:#555753;stroke-width:1;stroke-miterlimit:4;stroke-dasharray:none;stroke-opacity:1" id="rect2342" width="3.255" height="4.028" x="5.477" y="20.315"/><path style="fill:#4e9a06;fill-opacity:1;fill-rule:evenodd;stroke:#2e5c02;stroke-width:.99999893;stroke-miterlimit:4;stroke-opacity:1" id="path2344" d="M 1.5002188,23.547608 L 17.496218,23.547608 L 17.496218,27.491167 L 1.5002188,27.491167 L 1.5002188,23.547608 z"/><path style="fill:#57ae06;fill-opacity:1;fill-rule:evenodd;stroke:#2e5c02;stroke-width:.99999964;stroke-miterlimit:4;stroke-opacity:1" id="path2346" d="M 3.3006721,19.498944 L 15.714942,19.498944 L 17.494745,23.501044 L 1.5052643,23.501044 L 3.3006721,19.498944 z" sodipodi:nodetypes="ccccc"/><rect style="opacity:1;fill:#2e5c02;fill-opacity:1;fill-rule:evenodd;stroke:none;stroke-width:1;stroke-miterlimit:4;stroke-dasharray:none;stroke-opacity:1" id="rect2348" width="15.29" height="1.096" x="1.71" y="24.904"/><path style="opacity:.25;fill:none;fill-opacity:1;fill-rule:evenodd;stroke:#fff;stroke-width:.99999964;stroke-miterlimit:4;stroke-opacity:1" id="path2350" d="M 3.9455663,20.478417 L 3.0740096,22.503048 L 15.870931,22.503048 L 15.113159,20.478417 L 3.9455663,20.478417 z" sodipodi:nodetypes="ccccc"/><path style="opacity:1;fill:#2e5c02;fill-opacity:1;fill-rule:evenodd;stroke:none;stroke-width:1;stroke-miterlimit:4;stroke-dasharray:none;stroke-opacity:1" id="path2352" d="M 19.622213 -0.43681452 A 7.0710678 3.6239223 0 1 1 5.4800777,-0.43681452 A 7.0710678 3.6239223 0 1 1 19.622213 -0.43681452 z" transform="matrix(0.565686,0,0,0.137972,2.899997,21.56027)" sodipodi:cx="12.551" sodipodi:cy="-.437" sodipodi:rx="7.071" sodipodi:ry="3.624" sodipodi:type="arc"/><path style="opacity:1;fill:#d3d7cf;fill-opacity:1;fill-rule:evenodd;stroke:#555753;stroke-width:1.00000036;stroke-miterlimit:4;stroke-dasharray:none;stroke-opacity:1" id="path2354" d="M 9.4237928,19.494246 L 8.3690617,23.214472 L 8.3690617,27.419276 L 11.384537,27.419276 L 11.384537,23.178874 L 10.624966,19.494246 L 9.4237928,19.494246 z" sodipodi:nodetypes="ccccccc"/><rect style="opacity:1;fill:#888a85;fill-opacity:1;fill-rule:evenodd;stroke:none;stroke-width:1;stroke-miterlimit:4;stroke-dasharray:none;stroke-opacity:1" id="rect2356" width="2" height="2.946" x="8.874" y="23.959"/><rect style="opacity:1;fill:url(#linearGradient2360);fill-opacity:1;fill-rule:evenodd;stroke:none;stroke-width:1;stroke-miterlimit:4;stroke-dasharray:none;stroke-opacity:1" id="rect2358" width="2" height="3" x="8.874" y="23.904"/><rect style="fill:#eeeeec;fill-opacity:1;fill-rule:evenodd;stroke:#555753;stroke-width:1;stroke-miterlimit:4;stroke-dasharray:none;stroke-opacity:1" id="rect2341" width="3.255" height="4.028" x="7.603" y="23.411"/><path style="fill:#4e9a06;fill-opacity:1;fill-rule:evenodd;stroke:#2e5c02;stroke-width:.99999917;stroke-miterlimit:4;stroke-opacity:1" id="rect2271" d="M 3.5050816,26.501846 L 19.494908,26.501846 L 19.494908,30.49815 L 3.5050816,30.49815 L 3.5050816,26.501846 z"/><path style="fill:#57ae06;fill-opacity:1;fill-rule:evenodd;stroke:#2e5c02;stroke-width:.99999952;stroke-miterlimit:4;stroke-opacity:1" id="path3816" d="M 5.2913984,22.508463 L 17.711183,22.508463 L 19.449058,26.518989 L 3.6261611,26.518989 L 5.2913984,22.508463 z" sodipodi:nodetypes="ccccc"/><rect style="opacity:1;fill:#2e5c02;fill-opacity:1;fill-rule:evenodd;stroke:none;stroke-width:1;stroke-miterlimit:4;stroke-dasharray:none;stroke-opacity:1" id="rect2441" width="15" height="1" x="4" y="28"/><path style="opacity:1;fill:#2e5c02;fill-opacity:1;fill-rule:evenodd;stroke:none;stroke-width:1;stroke-miterlimit:4;stroke-dasharray:none;stroke-opacity:1" id="path3837" d="M 19.622213 -0.43681452 A 7.0710678 3.6239223 0 1 1 5.4800777,-0.43681452 A 7.0710678 3.6239223 0 1 1 19.622213 -0.43681452 z" transform="matrix(0.565686,0,0,0.137971,4.899997,24.56027)" sodipodi:cx="12.551" sodipodi:cy="-.437" sodipodi:rx="7.071" sodipodi:ry="3.624" sodipodi:type="arc"/><path style="opacity:.25;fill:none;fill-opacity:1;fill-rule:evenodd;stroke:#fff;stroke-width:.9999994;stroke-miterlimit:4;stroke-opacity:1" id="path2269" d="M 5.8967842,23.494221 L 5.0543847,25.52109 L 17.967935,25.52109 L 17.064376,23.494221 L 5.8967842,23.494221 z" sodipodi:nodetypes="ccccc"/><path style="opacity:1;fill:#d3d7cf;fill-opacity:1;fill-rule:evenodd;stroke:#555753;stroke-width:1.00000036;stroke-miterlimit:4;stroke-dasharray:none;stroke-opacity:1" id="rect1372" d="M 11.453678,22.453327 L 10.495223,26.255337 L 10.495223,30.509093 L 13.510698,30.509093 L 13.510698,26.219324 L 12.674181,22.4918 L 11.453678,22.453327 z" sodipodi:nodetypes="ccccccc"/><rect style="opacity:1;fill:#888a85;fill-opacity:1;fill-rule:evenodd;stroke:none;stroke-width:1;stroke-miterlimit:4;stroke-dasharray:none;stroke-opacity:1" id="rect2721" width="2" height="2.946" x="11" y="27.054"/><rect style="opacity:1;fill:url(#linearGradient2713);fill-opacity:1;fill-rule:evenodd;stroke:none;stroke-width:1;stroke-miterlimit:4;stroke-dasharray:none;stroke-opacity:1" id="rect2673" width="2" height="3" x="11" y="27"/><path style="opacity:1;fill:#fce94f;fill-opacity:1;fill-rule:evenodd;stroke:#786100;stroke-width:1.41227579;stroke-miterlimit:4;stroke-dasharray:none;stroke-opacity:1" id="path2413" d="M 32.823063 18.894651 A 6.330162 2.1770399 0 1 1 20.162739,18.894651 A 6.330162 2.1770399 0 1 1 32.823063 18.894651 z" transform="matrix(0.552382,0,0,0.907657,9.365806,11.35014)" sodipodi:cx="26.493" sodipodi:cy="18.895" sodipodi:rx="6.33" sodipodi:ry="2.177" sodipodi:type="arc"/><path style="opacity:.6;fill:none;fill-opacity:1;fill-rule:evenodd;stroke:none;stroke-width:1.51642048;stroke-miterlimit:4;stroke-dasharray:none;stroke-opacity:1" id="path2415" d="M 32.823063 18.894651 A 6.330162 2.1770399 0 1 1 20.162739,18.894651 A 6.330162 2.1770399 0 1 1 32.823063 18.894651 z" transform="matrix(0.417017,0,0,0.453293,12.99904,19.76272)" sodipodi:cx="26.493" sodipodi:cy="18.895" sodipodi:rx="6.33" sodipodi:ry="2.177" sodipodi:type="arc"/><path style="opacity:.6;fill:none;fill-opacity:1;fill-rule:evenodd;stroke:none;stroke-width:1.51642048;stroke-miterlimit:4;stroke-dasharray:none;stroke-opacity:1" id="path2419" d="M 32.823063 18.894651 A 6.330162 2.1770399 0 1 1 20.162739,18.894651 A 6.330162 2.1770399 0 1 1 32.823063 18.894651 z" transform="matrix(0.417017,0,0,0.453293,13.0054,18.44835)" sodipodi:cx="26.493" sodipodi:cy="18.895" sodipodi:rx="6.33" sodipodi:ry="2.177" sodipodi:type="arc"/><path style="opacity:.6;fill:none;fill-opacity:1;fill-rule:evenodd;stroke:none;stroke-width:1.51642048;stroke-miterlimit:4;stroke-dasharray:none;stroke-opacity:1" id="path2423" d="M 32.823063 18.894651 A 6.330162 2.1770399 0 1 1 20.162739,18.894651 A 6.330162 2.1770399 0 1 1 32.823063 18.894651 z" transform="matrix(0.417017,0,0,0.453293,13.0054,17.12975)" sodipodi:cx="26.493" sodipodi:cy="18.895" sodipodi:rx="6.33" sodipodi:ry="2.177" sodipodi:type="arc"/><path style="opacity:.6;fill:none;fill-opacity:1;fill-rule:evenodd;stroke:none;stroke-width:1.51642048;stroke-miterlimit:4;stroke-dasharray:none;stroke-opacity:1" id="path2427" d="M 32.823063 18.894651 A 6.330162 2.1770399 0 1 1 20.162739,18.894651 A 6.330162 2.1770399 0 1 1 32.823063 18.894651 z" transform="matrix(0.417017,0,0,0.453293,13.0054,15.80689)" sodipodi:cx="26.493" sodipodi:cy="18.895" sodipodi:rx="6.33" sodipodi:ry="2.177" sodipodi:type="arc"/><path style="opacity:.6;fill:none;fill-opacity:1;fill-rule:evenodd;stroke:none;stroke-width:1.51642048;stroke-miterlimit:4;stroke-dasharray:none;stroke-opacity:1" id="path2431" d="M 32.823063 18.894651 A 6.330162 2.1770399 0 1 1 20.162739,18.894651 A 6.330162 2.1770399 0 1 1 32.823063 18.894651 z" transform="matrix(0.417017,0,0,0.453293,13.0054,14.48829)" sodipodi:cx="26.493" sodipodi:cy="18.895" sodipodi:rx="6.33" sodipodi:ry="2.177" sodipodi:type="arc"/><path style="opacity:1;fill:#fce94f;fill-opacity:1;fill-rule:evenodd;stroke:#8c7200;stroke-width:1.40908217;stroke-miterlimit:4;stroke-dasharray:none;stroke-opacity:1" id="path2377" d="M 32.823063 18.894651 A 6.330162 2.1770399 0 1 1 20.162739,18.894651 A 6.330162 2.1770399 0 1 1 32.823063 18.894651 z" transform="matrix(0.552382,0,0,0.911777,9.369132,9.2723)" sodipodi:cx="26.493" sodipodi:cy="18.895" sodipodi:rx="6.33" sodipodi:ry="2.177" sodipodi:type="arc"/><path style="opacity:1;fill:#fce94f;fill-opacity:1;fill-rule:evenodd;stroke:#8c7200;stroke-width:1.40633678;stroke-miterlimit:4;stroke-dasharray:none;stroke-opacity:1" id="path2322" d="M 32.823063 18.894651 A 6.330162 2.1770399 0 1 1 20.162739,18.894651 A 6.330162 2.1770399 0 1 1 32.823063 18.894651 z" transform="matrix(0.552871,0,0,0.914532,9.353062,7.227757)" sodipodi:cx="26.493" sodipodi:cy="18.895" sodipodi:rx="6.33" sodipodi:ry="2.177" sodipodi:type="arc"/><path style="opacity:1;fill:#fff292;fill-opacity:1;fill-rule:evenodd;stroke:#8c7200;stroke-width:1.40771079;stroke-miterlimit:4;stroke-dasharray:none;stroke-opacity:1" id="path2761" d="M 32.823063 18.894651 A 6.330162 2.1770399 0 1 1 20.162739,18.894651 A 6.330162 2.1770399 0 1 1 32.823063 18.894651 z" transform="matrix(0.552382,0,0,0.913552,9.365803,5.238745)" sodipodi:cx="26.493" sodipodi:cy="18.895" sodipodi:rx="6.33" sodipodi:ry="2.177" sodipodi:type="arc"/></g></svg>